<svg width="102" height="82" viewBox="0 0 102 82" fill="none" xmlns="http://www.w3.org/2000/svg">
<path fill-rule="evenodd" clip-rule="evenodd" d="M69.6364 69.4956C61.2378 69.4956 54.3945 65.2634 54.3945 60.0693C54.3945 51.3642 71.1139 47.3242 80.6788 53.2399C90.3217 59.2997 83.4784 69.4956 69.6364 69.4956ZM84.4116 35.5413H17.3009C13.2571 35.5413 10.0688 33.5214 10.0688 30.9242C10.0688 28.6157 12.946 26.692 16.5232 26.4516C16.5232 26.3554 16.5232 26.3072 16.5232 26.2593C16.5232 20.0551 21.1113 14.2839 28.2657 10.2921C28.499 10.1478 28.7322 10.0035 28.9655 9.90734C32.6205 8.03167 36.8976 6.58886 41.6411 5.72317L41.4079 3.65513C41.0967 1.539 43.8187 0 47.0846 0H54.628C57.9716 0 60.6935 1.68328 60.5381 3.60703L60.3046 5.77126C64.9706 6.58886 69.2475 8.03167 72.8249 9.90734C73.2134 10.0035 73.5246 10.1478 73.7578 10.3883C80.99 14.332 85.4226 20.007 85.4226 26.2593V26.4516C89.1554 26.7402 91.877 28.6157 91.877 30.9242C91.877 33.5214 88.6888 35.5413 84.4116 35.5413ZM20.7225 26.4036H44.1295L41.9522 8.32023C40.8636 8.56069 39.8527 8.80118 38.8418 9.08974V19.3818C38.8418 20.0551 37.9086 20.6322 36.7419 20.6322C35.6532 20.6322 34.72 20.0551 34.72 19.3818V10.4845C33.7869 10.8211 32.9316 11.254 32.0761 11.6387V16.9771C32.0761 17.6504 31.1429 18.2276 30.0542 18.2276C28.8878 18.2276 27.9546 17.6504 27.9546 16.9771V14.1877C23.3665 17.5062 20.7225 21.8345 20.7225 26.4036ZM17.3009 29.0005C13.1794 29.0005 13.3349 32.9923 17.3009 32.9923H84.4116C88.7665 32.9923 88.9996 29.0005 84.4116 29.0005H83.4007H55.4054H46.3071H18.6229H17.3009ZM57.583 26.4036H81.3012C81.3012 21.8345 78.5792 17.5542 74.0689 14.2358V16.9771C74.0689 17.6504 73.1357 18.2276 71.9694 18.2276C70.8027 18.2276 69.8698 17.6504 69.8698 16.9771V11.6868C69.0143 11.254 68.0811 10.8211 67.0702 10.4364V19.3818C67.0702 20.0551 66.137 20.6322 64.9706 20.6322C63.804 20.6322 62.8708 20.0551 62.8708 19.3818V9.08974C61.9375 8.80118 60.9266 8.56069 59.9157 8.36832L57.583 26.4036ZM55.9497 7.0217C55.872 6.78123 55.9497 6.49267 56.1055 6.25219L56.4163 3.46275C56.4163 2.88564 55.4831 2.54897 54.628 2.54897H47.0846C46.3071 2.54897 45.5293 2.78945 45.5293 3.41466L48.2512 26.4036H53.4613L55.9497 7.0217ZM15.7456 82C14.5791 82 13.7237 81.3747 13.7237 80.7015V76.5654H10.0688V80.7015C10.0688 81.6152 8.59124 82.2405 7.1915 81.9038C-1.28485 79.7397 -2.52908 72.5737 4.93632 69.2551V50.6428C-2.37355 47.4686 -1.51815 40.3987 7.1915 38.0423C8.51347 37.6575 10.0688 38.3307 10.0688 39.2446V43.573H13.7237V39.2446C13.7237 38.3307 15.2012 37.7056 16.601 38.0423C24.9218 40.1583 26.3993 47.3242 19.1672 50.4985V69.4474C26.5548 72.7178 24.6107 79.932 16.601 81.9038C16.2899 81.9518 16.0566 82 15.7456 82ZM9.05782 73.9683H14.7347C18.5451 73.9683 17.8452 76.5173 17.8452 78.2487C20.8003 76.1325 20.1004 72.6217 16.0566 71.275C15.4345 71.0345 14.9679 70.6018 14.9679 70.1209V49.7771C14.9679 49.3443 15.4345 48.9114 16.0566 48.6709C20.1004 47.3242 20.8003 43.8616 17.8452 41.6974V44.0539C17.8452 45.2082 16.4455 46.1219 14.7347 46.1219H9.05782C5.24736 46.1219 5.94724 43.4768 5.94724 41.6974C2.75891 43.9577 4.00314 47.5167 7.96912 48.8152C8.66902 49.0557 9.05782 49.4886 9.05782 49.9696V69.9765C9.05782 70.4575 8.66902 70.8902 7.96912 71.0827C4.00314 72.4294 2.75891 75.9402 5.94724 78.2487C5.94724 76.325 5.24736 73.9683 9.05782 73.9683ZM75.3133 80.5572H64.1929C61.8598 80.5572 60.0715 79.4029 60.0715 78.0082V73.7278C58.3605 73.2951 56.7275 72.7178 55.25 71.9964L49.3399 74.1608C47.318 74.7858 44.9073 74.4492 43.7409 73.1987L38.064 67.2832C36.8976 66.0809 37.7528 64.4458 39.6192 63.7242L45.5293 61.8005C45.2185 60.5021 45.2185 59.3959 45.5293 58.1936L39.3861 56.1255C37.5974 55.1637 36.8976 53.9613 38.064 52.6629L43.7409 46.7953C44.9073 45.4967 47.3957 45.1601 49.4953 45.8335L55.25 47.9495C56.7275 47.2281 58.3605 46.651 60.0715 46.2183V41.9379C60.0715 40.5912 62.0156 39.3889 64.1929 39.3889H75.3133C77.4906 39.3889 79.5124 40.5912 79.5124 41.9379V46.2183C81.2234 46.651 82.8564 47.2281 84.3339 47.9015L90.1663 45.7853C92.1882 45.1601 94.5989 45.4967 95.7652 46.7472L101.52 52.7108C102.609 54.0093 101.753 55.5003 99.8866 56.2217L93.9765 58.1936C94.2877 59.3959 94.3654 60.5021 93.9765 61.7526L100.12 63.8206C101.987 64.6863 102.531 66.1771 101.442 67.2832L95.7652 73.1508C94.5989 74.4492 92.1105 74.7858 90.0886 74.1126L84.3339 71.9964C82.8564 72.7178 81.2234 73.2951 79.5124 73.7278V78.0082C79.5124 79.4029 77.646 80.5572 75.3133 80.5572ZM64.1929 78.0082H75.3133V72.8621C75.3133 71.227 78.2684 71.9484 82.7787 69.4956C83.4784 69.1108 84.4893 69.0627 85.1894 69.3513L92.1882 71.9003L97.8648 65.9848L90.6329 63.5801C88.6888 62.9067 90.0886 61.6562 90.0886 60.0693C90.0886 56.0773 86.5889 57.7608 97.8648 53.9613L92.1882 48.0458L85.1894 50.5948C82.9341 51.4124 82.3898 49.4405 76.7909 48.2863C75.9354 48.0938 75.3133 47.6129 75.3133 47.0838V41.9858L64.2706 41.9379L64.1929 47.0838C64.1929 48.6709 61.2378 47.9977 56.8052 50.4505C56.1055 50.7871 55.0946 50.8353 54.3945 50.5948L47.3957 48.0458L41.7188 53.9613C52.9947 57.7608 49.4953 56.0773 49.4953 60.0693C49.4953 61.6562 50.8951 62.9067 48.8733 63.5801L41.7188 65.9848L47.3957 71.9003L54.3945 69.3513C56.5721 68.5338 57.1941 70.5056 62.793 71.6598C63.6485 71.8041 64.1929 72.285 64.1929 72.8621V78.0082ZM69.6364 52.9995C63.4931 52.9995 58.5162 56.1737 58.5162 60.0693C58.5162 63.8206 63.4931 66.9466 69.6364 66.9466C75.9354 66.9466 81.0677 63.8206 81.0677 60.0693C81.0677 56.0773 76.0131 52.9995 69.6364 52.9995Z" fill="#906E50"/>
</svg>
