<svg width="85" height="61" viewBox="0 0 85 61" fill="none" xmlns="http://www.w3.org/2000/svg">
<mask id="mask0_19_178" style="mask-type:luminance" maskUnits="userSpaceOnUse" x="0" y="0" width="79" height="61">
<path d="M57.7435 31.7799L59.6824 30.2827C59.6831 30.2822 59.6837 30.2817 59.6843 30.2813C59.685 30.2808 59.6856 30.2803 59.6862 30.2798L66.5265 24.998C66.5268 24.9977 66.5273 24.9974 66.5278 24.9972C66.5275 24.9976 66.5281 24.9969 66.5278 24.9972L73.3703 19.7136L77.1291 16.8112C78.3356 15.8798 79 14.6412 79 13.3239C79 12.0065 78.3354 10.7679 77.1291 9.8366L66.2611 1.44469C65.0548 0.513247 63.4507 0.000108262 61.7447 0.000108262C60.0384 0.000108262 58.4346 0.513128 57.2282 1.44469L37.8424 16.4133L24.6842 6.25296C22.4813 4.55211 19.7206 3.34141 16.7003 2.75178L2.88181 0.0545555C2.09181 -0.0997316 1.25428 0.0783837 0.677981 0.523612C0.101527 0.968602 -0.129147 1.61494 0.070668 2.22518L3.56394 12.8952C4.32741 15.2272 5.89538 17.359 8.09812 19.0598L21.2565 29.2201L1.87069 44.1888C0.664403 45.1204 0 46.3588 0 47.6761C0 48.9936 0.664403 50.2319 1.87085 51.1634L12.739 59.5553C13.9455 60.487 15.5494 61 17.2557 61C18.9617 61 20.5656 60.487 21.7719 59.5554L32.3685 51.3733C32.3703 51.3721 32.3718 51.3708 32.3736 51.3696C32.3751 51.3685 32.3767 51.3671 32.3783 51.3658L41.1576 44.5869L58.9789 58.3477C61.2653 60.1131 64.2686 60.996 67.2718 60.996C70.2752 60.996 73.2785 60.1132 75.5649 58.3477C80.1378 54.8168 80.1378 49.0717 75.5649 45.5408L57.7435 31.7799ZM8.05152 12.0193L5.50932 4.25414L15.5658 6.21723C17.7771 6.64876 19.7982 7.53516 21.4109 8.78041L23.2356 10.1894L13.1958 17.9416L11.3711 16.5327C9.75835 15.2873 8.61054 13.7267 8.05152 12.0193ZM16.4688 20.4688L26.5086 12.7165L34.5693 18.9406L24.5295 26.6929L16.4688 20.4688ZM17.2557 57.4258C16.7859 57.4258 16.3445 57.2845 16.0124 57.028L5.14394 48.6362C4.81191 48.3798 4.62907 48.0388 4.62907 47.6761C4.62907 47.3134 4.81191 46.9724 5.14394 46.716L60.5012 3.97191C60.8333 3.71551 61.2749 3.57421 61.7447 3.57421C62.2144 3.57421 62.6558 3.71551 62.988 3.97191L73.8562 12.364C74.1883 12.6202 74.3712 12.9612 74.3712 13.3239C74.3712 13.6864 74.1883 14.0274 73.8562 14.284L71.7345 15.9223L64.6743 10.4707C63.7707 9.77274 62.3052 9.77274 61.4012 10.4707C60.4974 11.1685 60.4974 12.3 61.4012 12.998L68.4614 18.4497L64.8912 21.2063L61.2527 18.3969C60.3489 17.6988 58.8834 17.699 57.9795 18.3969C57.0756 19.0948 57.0756 20.2263 57.9795 20.9242L61.6181 23.7336L58.0481 26.4903L50.9879 21.0387C50.084 20.3407 48.6187 20.3407 47.7147 21.0387C46.8108 21.7365 46.8108 22.868 47.7147 23.566L54.775 29.0176L51.2048 31.7742L47.5662 28.9648C46.6625 28.2669 45.197 28.2669 44.2931 28.9648C43.3892 29.6626 43.3892 30.7941 44.2931 31.4921L47.9315 34.3015L44.4233 37.0104L37.3632 31.559C36.4593 30.861 34.9938 30.861 34.0901 31.559C33.1862 32.2567 33.1862 33.3884 34.0901 34.0862L41.1502 39.5378L37.5801 42.2945L33.9416 39.4849C33.038 38.7872 31.5724 38.7872 30.6684 39.4849C29.7647 40.1828 29.7647 41.3144 30.6684 42.0123L34.307 44.8218L30.7368 47.5784L23.6769 42.1271C22.7732 41.4292 21.3076 41.4292 20.4038 42.1271C19.4999 42.8248 19.4999 43.9565 20.4038 44.6543L27.4637 50.1058L23.8937 52.8625L20.2551 50.0531C19.3515 49.3552 17.8859 49.3552 16.982 50.0531C16.0782 50.7508 16.0782 51.8825 16.982 52.5803L20.6206 55.3898L18.4988 57.028C18.1667 57.2846 17.7252 57.4258 17.2557 57.4258ZM46.0505 40.8088C46.0538 40.8063 46.0568 40.804 46.0602 40.8014C46.0633 40.799 46.0665 40.7966 46.0695 40.7941L52.8388 35.5672C52.8398 35.5664 52.8407 35.5658 52.8414 35.5652C52.8422 35.5645 52.8431 35.5639 52.844 35.5631L54.4705 34.3073L64.2779 41.88L54.2381 49.6323L44.4307 42.0595L46.0505 40.8088ZM72.2918 55.8202C69.5238 57.9574 65.02 57.9574 62.252 55.8202L57.5112 52.1595L67.551 44.4073L72.292 48.0679C75.0598 50.2054 75.0598 53.6829 72.2918 55.8202Z" fill="white"/>
</mask>
<g mask="url(#mask0_19_178)">
<path d="M57.7435 31.7799L59.6824 30.2827C59.6831 30.2822 59.6837 30.2817 59.6843 30.2813C59.685 30.2808 59.6856 30.2803 59.6862 30.2798L66.5265 24.998C66.5268 24.9977 66.5273 24.9974 66.5278 24.9972C66.5275 24.9976 66.5281 24.9969 66.5278 24.9972L73.3703 19.7136L77.1291 16.8112C78.3356 15.8798 79 14.6412 79 13.3239C79 12.0065 78.3354 10.7679 77.1291 9.8366L66.2611 1.44469C65.0548 0.513247 63.4507 0.000108262 61.7447 0.000108262C60.0384 0.000108262 58.4346 0.513128 57.2282 1.44469L37.8424 16.4133L24.6842 6.25296C22.4813 4.55211 19.7206 3.34141 16.7003 2.75178L2.88181 0.0545555C2.09181 -0.0997316 1.25428 0.0783837 0.677981 0.523612C0.101527 0.968602 -0.129147 1.61494 0.070668 2.22518L3.56394 12.8952C4.32741 15.2272 5.89538 17.359 8.09812 19.0598L21.2565 29.2201L1.87069 44.1888C0.664403 45.1204 0 46.3588 0 47.6761C0 48.9936 0.664403 50.2319 1.87085 51.1634L12.739 59.5553C13.9455 60.487 15.5494 61 17.2557 61C18.9617 61 20.5656 60.487 21.7719 59.5554L32.3685 51.3733C32.3703 51.3721 32.3718 51.3708 32.3736 51.3696C32.3751 51.3685 32.3767 51.3671 32.3783 51.3658L41.1576 44.5869L58.9789 58.3477C61.2653 60.1131 64.2686 60.996 67.2718 60.996C70.2752 60.996 73.2785 60.1132 75.5649 58.3477C80.1378 54.8168 80.1378 49.0717 75.5649 45.5408L57.7435 31.7799ZM8.05152 12.0193L5.50932 4.25414L15.5658 6.21723C17.7771 6.64876 19.7982 7.53516 21.4109 8.78041L23.2356 10.1894L13.1958 17.9416L11.3711 16.5327C9.75835 15.2873 8.61054 13.7267 8.05152 12.0193ZM16.4688 20.4688L26.5086 12.7165L34.5693 18.9406L24.5295 26.6929L16.4688 20.4688ZM17.2557 57.4258C16.7859 57.4258 16.3445 57.2845 16.0124 57.028L5.14394 48.6362C4.81191 48.3798 4.62907 48.0388 4.62907 47.6761C4.62907 47.3134 4.81191 46.9724 5.14394 46.716L60.5012 3.97191C60.8333 3.71551 61.2749 3.57421 61.7447 3.57421C62.2144 3.57421 62.6558 3.71551 62.988 3.97191L73.8562 12.364C74.1883 12.6202 74.3712 12.9612 74.3712 13.3239C74.3712 13.6864 74.1883 14.0274 73.8562 14.284L71.7345 15.9223L64.6743 10.4707C63.7707 9.77274 62.3052 9.77274 61.4012 10.4707C60.4974 11.1685 60.4974 12.3 61.4012 12.998L68.4614 18.4497L64.8912 21.2063L61.2527 18.3969C60.3489 17.6988 58.8834 17.699 57.9795 18.3969C57.0756 19.0948 57.0756 20.2263 57.9795 20.9242L61.6181 23.7336L58.0481 26.4903L50.9879 21.0387C50.084 20.3407 48.6187 20.3407 47.7147 21.0387C46.8108 21.7365 46.8108 22.868 47.7147 23.566L54.775 29.0176L51.2048 31.7742L47.5662 28.9648C46.6625 28.2669 45.197 28.2669 44.2931 28.9648C43.3892 29.6626 43.3892 30.7941 44.2931 31.4921L47.9315 34.3015L44.4233 37.0104L37.3632 31.559C36.4593 30.861 34.9938 30.861 34.0901 31.559C33.1862 32.2567 33.1862 33.3884 34.0901 34.0862L41.1502 39.5378L37.5801 42.2945L33.9416 39.4849C33.038 38.7872 31.5724 38.7872 30.6684 39.4849C29.7647 40.1828 29.7647 41.3144 30.6684 42.0123L34.307 44.8218L30.7368 47.5784L23.6769 42.1271C22.7732 41.4292 21.3076 41.4292 20.4038 42.1271C19.4999 42.8248 19.4999 43.9565 20.4038 44.6543L27.4637 50.1058L23.8937 52.8625L20.2551 50.0531C19.3515 49.3552 17.8859 49.3552 16.982 50.0531C16.0782 50.7508 16.0782 51.8825 16.982 52.5803L20.6206 55.3898L18.4988 57.028C18.1667 57.2846 17.7252 57.4258 17.2557 57.4258ZM46.0505 40.8088C46.0538 40.8063 46.0568 40.804 46.0602 40.8014C46.0633 40.799 46.0665 40.7966 46.0695 40.7941L52.8388 35.5672C52.8398 35.5664 52.8407 35.5658 52.8414 35.5652C52.8422 35.5645 52.8431 35.5639 52.844 35.5631L54.4705 34.3073L64.2779 41.88L54.2381 49.6323L44.4307 42.0595L46.0505 40.8088ZM72.2918 55.8202C69.5238 57.9574 65.02 57.9574 62.252 55.8202L57.5112 52.1595L67.551 44.4073L72.292 48.0679C75.0598 50.2054 75.0598 53.6829 72.2918 55.8202Z" fill="#906E50"/>
<path d="M66.5278 24.9972C66.5273 24.9974 66.5268 24.9977 66.5265 24.998L59.6862 30.2798C59.6856 30.2803 59.685 30.2808 59.6843 30.2813C59.6837 30.2817 59.6831 30.2822 59.6824 30.2827L57.7435 31.7799L75.5649 45.5408C80.1378 49.0717 80.1378 54.8168 75.5649 58.3477C73.2785 60.1132 70.2752 60.996 67.2718 60.996C64.2686 60.996 61.2653 60.1131 58.9789 58.3477L41.1576 44.5869L32.3783 51.3658C32.3767 51.3671 32.3751 51.3685 32.3736 51.3696C32.3718 51.3708 32.3703 51.3721 32.3685 51.3733L21.7719 59.5554C20.5656 60.487 18.9617 61 17.2557 61C15.5494 61 13.9455 60.487 12.7391 59.5553L1.87085 51.1634C0.664403 50.2319 0 48.9936 0 47.6761C0 46.3588 0.664403 45.1204 1.87069 44.1888L21.2565 29.2201L8.09812 19.0598C5.89538 17.359 4.32741 15.2272 3.56394 12.8952L0.070668 2.22518C-0.129147 1.61494 0.101527 0.968602 0.677981 0.523612C1.25428 0.0783837 2.09181 -0.0997316 2.88181 0.0545555L16.7003 2.75178C19.7206 3.34141 22.4813 4.55211 24.6842 6.25296L37.8424 16.4133L57.2282 1.44469C58.4346 0.513128 60.0384 0.000108262 61.7447 0.000108262C63.4507 0.000108262 65.0548 0.513247 66.2611 1.44469L77.1291 9.8366C78.3355 10.7679 79 12.0065 79 13.3239C79 14.6412 78.3356 15.8798 77.1291 16.8112L73.3703 19.7136M66.5278 24.9972C66.5281 24.9969 66.5275 24.9976 66.5278 24.9972ZM66.5278 24.9972L73.3703 19.7136M73.3703 19.7136C73.3705 19.7135 73.3701 19.7137 73.3703 19.7136ZM8.05152 12.0193L5.50932 4.25414L15.5658 6.21723C17.7771 6.64876 19.7982 7.53516 21.4109 8.78041L23.2356 10.1894L13.1958 17.9416L11.3711 16.5327C9.75835 15.2873 8.61054 13.7267 8.05152 12.0193ZM16.4688 20.4688L26.5086 12.7165L34.5693 18.9406L24.5295 26.6929L16.4688 20.4688ZM17.2557 57.4258C16.7859 57.4258 16.3445 57.2845 16.0124 57.028L5.14394 48.6362C4.81191 48.3798 4.62907 48.0388 4.62907 47.6761C4.62907 47.3134 4.81191 46.9724 5.14394 46.716L60.5012 3.97191C60.8333 3.71551 61.2749 3.57421 61.7447 3.57421C62.2144 3.57421 62.6558 3.71551 62.988 3.97191L73.8562 12.364C74.1883 12.6202 74.3712 12.9612 74.3712 13.3239C74.3712 13.6864 74.1883 14.0274 73.8562 14.284L71.7345 15.9223L64.6743 10.4707C63.7707 9.77274 62.3052 9.77274 61.4012 10.4707C60.4974 11.1685 60.4974 12.3 61.4012 12.998L68.4614 18.4497L64.8912 21.2063L61.2527 18.3969C60.3489 17.6988 58.8834 17.699 57.9795 18.3969C57.0756 19.0948 57.0756 20.2263 57.9795 20.9242L61.6181 23.7336L58.0481 26.4903L50.9879 21.0387C50.0839 20.3407 48.6187 20.3407 47.7147 21.0387C46.8108 21.7365 46.8108 22.868 47.7147 23.566L54.775 29.0176L51.2048 31.7742L47.5662 28.9648C46.6625 28.2669 45.197 28.2669 44.2931 28.9648C43.3892 29.6626 43.3892 30.7941 44.2931 31.4921L47.9315 34.3015L44.4233 37.0104L37.3632 31.559C36.4593 30.861 34.9938 30.861 34.0901 31.559C33.1862 32.2567 33.1862 33.3884 34.0901 34.0862L41.1502 39.5378L37.5801 42.2945L33.9416 39.4849C33.038 38.7872 31.5724 38.7872 30.6684 39.4849C29.7647 40.1828 29.7647 41.3144 30.6684 42.0123L34.307 44.8218L30.7368 47.5784L23.6769 42.1271C22.7732 41.4292 21.3076 41.4292 20.4038 42.1271C19.4999 42.8248 19.4999 43.9565 20.4038 44.6543L27.4637 50.1058L23.8937 52.8625L20.2551 50.0531C19.3515 49.3552 17.8859 49.3552 16.982 50.0531C16.0782 50.7508 16.0782 51.8825 16.982 52.5803L20.6206 55.3898L18.4988 57.028C18.1667 57.2846 17.7252 57.4258 17.2557 57.4258ZM46.0505 40.8088C46.0538 40.8063 46.0568 40.804 46.0602 40.8014C46.0633 40.799 46.0665 40.7966 46.0695 40.7941L52.8388 35.5671C52.8398 35.5664 52.8407 35.5658 52.8414 35.5652C52.8422 35.5645 52.8431 35.5639 52.844 35.5631L54.4705 34.3073L64.2779 41.88L54.2381 49.6323L44.4307 42.0595L46.0505 40.8088ZM72.2918 55.8202C69.5238 57.9574 65.02 57.9574 62.252 55.8202L57.5112 52.1595L67.551 44.4073L72.292 48.0679C75.0598 50.2054 75.0598 53.6829 72.2918 55.8202Z" stroke="white"/>
</g>
</svg>
