<svg width="90" height="76" viewBox="0 0 90 76" fill="none" xmlns="http://www.w3.org/2000/svg">
<g clip-path="url(#clip0_19_289)">
<path d="M61.852 31.7371C63.5423 30.4837 64.5914 28.7461 64.5914 26.8278C64.5914 23.0176 60.4528 19.918 55.366 19.918C51.4463 19.918 47.9721 21.7795 46.6749 24.5074C46.1313 24.4322 45.5718 24.391 44.9995 24.391C44.427 24.391 43.868 24.4322 43.324 24.5074C42.0267 21.7794 38.5524 19.918 34.6329 19.918C29.5461 19.918 25.4075 23.0176 25.4075 26.8278C25.4075 28.7461 26.4569 30.4837 28.1471 31.7371C24.0924 33.4674 21.4823 36.7441 21.4823 40.3076C21.4823 40.9225 22.1476 41.4209 22.9682 41.4209C23.789 41.4209 24.4542 40.9225 24.4542 40.3076C24.4542 37.1603 27.0846 34.3022 31.005 33.1814C32.1192 33.5398 33.3455 33.739 34.6331 33.739C35.2001 33.739 35.7617 33.698 36.3112 33.622C36.781 34.6064 37.5399 35.4881 38.5121 36.2096C34.4205 37.945 31.8492 41.1974 31.8492 44.7811C31.8492 45.396 32.5146 45.8943 33.3353 45.8943C34.1559 45.8943 34.8213 45.396 34.8213 44.7811C34.8213 41.7094 37.2616 38.9513 41.038 37.7546C41.1392 37.7225 41.2324 37.6825 41.3184 37.6371C42.4469 38.0065 43.6914 38.2129 44.9995 38.2129C46.2873 38.2129 47.5139 38.0134 48.6282 37.6548C52.5467 38.7757 55.1776 41.6367 55.1776 44.7811C55.1776 45.396 55.843 45.8943 56.6636 45.8943C57.4844 45.8943 58.1497 45.396 58.1497 44.7811C58.1497 41.2208 55.5388 37.9415 51.4854 36.2105C52.4581 35.489 53.2177 34.6068 53.6877 33.622C54.2374 33.698 54.7988 33.739 55.3658 33.739C56.6534 33.739 57.8797 33.5398 58.9937 33.1814C62.9141 34.3022 65.5445 37.16 65.5445 40.3076C65.5445 40.9225 66.2097 41.4209 67.0305 41.4209C67.8512 41.4209 68.5164 40.9225 68.5164 40.3076C68.5168 36.7438 65.9066 33.4674 61.852 31.7371ZM35.775 31.3019C35.775 31.3458 35.7782 31.3888 35.7793 31.4322C35.4051 31.4846 35.0217 31.5125 34.6331 31.5125C31.185 31.5125 28.3799 29.4111 28.3799 26.8278C28.3799 24.2456 31.185 22.1445 34.6331 22.1445C37.2933 22.1445 39.6497 23.409 40.5266 25.2608C37.6952 26.442 35.775 28.7067 35.775 31.3019ZM38.747 31.3019C38.747 28.7192 41.5519 26.6178 44.9996 26.6178C48.4475 26.6178 51.2523 28.719 51.2523 31.3019C51.2523 33.8849 48.4475 35.9862 44.9996 35.9862C41.5519 35.9862 38.747 33.8848 38.747 31.3019ZM54.2198 31.4322C54.2208 31.3888 54.2243 31.3457 54.2243 31.3019C54.2243 28.7067 52.3038 26.4421 49.4724 25.2609C50.3494 23.4092 52.7058 22.1446 55.366 22.1446C58.8141 22.1446 61.6194 24.2456 61.6194 26.8279C61.6194 29.4111 58.8141 31.5126 55.366 31.5126C54.9776 31.5125 54.5942 31.4846 54.2198 31.4322Z" fill="#906E50"/>
<path d="M83.4844 48.1143V27.8782C87.1886 27.3545 89.9998 24.9135 89.9998 21.9886C89.9998 18.6829 86.4101 15.9936 81.9976 15.9936C79.5726 15.9936 77.3977 16.8071 75.929 18.0874L52.5512 7.97513C52.8419 7.35482 53.0021 6.68862 53.0021 5.99467C53.0021 2.68925 49.4123 0 45 0C40.5877 0 36.9977 2.68926 36.9977 5.99482C36.9977 6.68877 37.1578 7.35482 37.4486 7.97529L14.0708 18.0874C12.6022 16.8071 10.4272 15.9936 8.00222 15.9936C3.58967 15.9936 0 18.6829 0 21.9886C0 24.9135 2.81119 27.3544 6.51539 27.8782V48.1143C2.81119 48.638 0 51.0789 0 54.0039C0 57.3096 3.58967 59.9988 8.00222 59.9988C10.4235 59.9988 12.5953 59.188 14.0639 57.911L37.4483 68.0252C37.1578 68.6453 36.9977 69.3114 36.9977 70.005C36.9977 73.3107 40.5875 76 45 76C49.4125 76 53.0023 73.3107 53.0023 70.005C53.0023 69.3114 52.8422 68.6453 52.5517 68.0252L75.9361 57.911C77.4047 59.1881 79.5766 59.9988 81.9977 59.9988C86.4103 59.9988 90 57.3096 90 54.0039C89.9998 51.0788 87.1884 48.638 83.4844 48.1143ZM81.9976 18.2202C84.7712 18.2202 87.0277 19.9107 87.0277 21.9886C87.0277 24.0664 84.7712 25.757 81.9976 25.757C79.2241 25.757 76.9675 24.0664 76.9675 21.9886C76.9675 19.9107 79.2241 18.2202 81.9976 18.2202ZM45 2.22657C47.7736 2.22657 50.0301 3.91698 50.0301 5.99482C50.0301 8.07072 47.7778 9.75995 45.0077 9.76307L45 9.76278L44.9923 9.76307C42.2222 9.75995 39.9699 8.07072 39.9699 5.99482C39.9699 3.91698 42.2262 2.22657 45 2.22657ZM2.97207 21.9886C2.97207 19.9107 5.22868 18.2202 8.00222 18.2202C10.7758 18.2202 13.0324 19.9107 13.0324 21.9886C13.0324 24.0664 10.7758 25.757 8.00222 25.757C5.22868 25.757 2.97207 24.0664 2.97207 21.9886ZM8.00222 57.7721C5.22868 57.7721 2.97207 56.0815 2.97207 54.0038C2.97207 51.9259 5.22868 50.2353 8.00222 50.2353C10.7758 50.2353 13.0324 51.9259 13.0324 54.0038C13.0324 56.0815 10.7758 57.7721 8.00222 57.7721ZM45 73.7733C42.2264 73.7733 39.9699 72.0828 39.9699 70.0049C39.9699 67.9271 42.2264 66.2365 45 66.2365C47.7736 66.2365 50.0301 67.9271 50.0301 70.0049C50.0301 72.0828 47.7736 73.7733 45 73.7733ZM51.062 66.0983C49.9016 65.0889 48.3016 64.3719 46.4859 64.1153V59.8264C46.4859 59.2113 45.8204 58.7131 44.9998 58.7131C44.1792 58.7131 43.5137 59.2113 43.5137 59.8264V64.1153C41.6983 64.372 40.0982 65.0889 38.9376 66.0983L15.5535 55.9843C15.8443 55.3639 16.0042 54.6978 16.0042 54.0039C16.0042 53.3094 15.8439 52.6425 15.5527 52.0216L20.5121 49.876C21.2227 49.5683 21.4661 48.8874 21.0557 48.355C20.6455 47.8226 19.7366 47.6405 19.0256 47.9477L14.0619 50.0954C12.9014 49.0869 11.302 48.3705 9.48726 48.1142V27.8783C11.3026 27.6219 12.9024 26.9051 14.0629 25.8962L19.0334 28.0467C19.2674 28.1479 19.523 28.196 19.7752 28.196C20.2885 28.196 20.788 27.9963 21.0632 27.6394C21.4738 27.1068 21.2303 26.4259 20.5196 26.1184L15.5529 23.9697C15.8437 23.349 16.0038 22.6826 16.0038 21.9886C16.0038 21.2975 15.8451 20.634 15.5564 20.0157L38.9376 9.90186C40.0981 10.9109 41.6979 11.6279 43.5132 11.8844V16.1738C43.5132 16.7888 44.1785 17.287 44.9993 17.287C45.8199 17.287 46.4852 16.7888 46.4852 16.1738V11.8844C48.3007 11.6279 49.9003 10.9109 51.0608 9.90186L74.4421 20.0157C74.1535 20.634 73.9946 21.2975 73.9946 21.9886C73.9946 22.6826 74.1546 23.349 74.4455 23.9697L69.4787 26.1184C68.7681 26.4259 68.5246 27.1068 68.9351 27.6394C69.2104 27.9963 69.7099 28.196 70.2232 28.196C70.4752 28.196 70.731 28.1479 70.965 28.0467L75.9355 25.8962C77.0962 26.9051 78.696 27.6219 80.5111 27.8783V48.1142C78.6964 48.3705 77.0972 49.0869 75.9366 50.0954L70.9727 47.9477C70.2621 47.6407 69.3531 47.8226 68.9427 48.355C68.5321 48.8874 68.7757 49.5683 69.4863 49.876L74.4457 52.0216C74.1544 52.6425 73.9942 53.3094 73.9942 54.0039C73.9942 54.6978 74.1541 55.364 74.4449 55.9843L51.062 66.0983ZM81.9976 57.7721C79.2241 57.7721 76.9675 56.0815 76.9675 54.0038C76.9675 51.9259 79.2241 50.2353 81.9976 50.2353C84.7712 50.2353 87.0277 51.9259 87.0277 54.0038C87.0277 56.0815 84.7712 57.7721 81.9976 57.7721Z" fill="#906E50"/>
<path d="M57.4475 49.5024H53.0251C52.2043 49.5024 51.539 50.0008 51.539 50.6157C51.539 51.2307 52.2043 51.729 53.0251 51.729H57.4475C58.2682 51.729 58.9336 51.2307 58.9336 50.6157C58.9336 50.0008 58.2682 49.5024 57.4475 49.5024Z" fill="#906E50"/>
<path d="M57.447 53.8628H32.5535C31.7329 53.8628 31.0676 54.361 31.0676 54.9761C31.0676 55.5909 31.7329 56.0893 32.5535 56.0893H57.4472C58.2678 56.0893 58.9332 55.5909 58.9332 54.9761C58.9332 54.361 58.2676 53.8628 57.447 53.8628Z" fill="#906E50"/>
<path d="M32.5535 51.729H32.5742C33.3948 51.729 34.0603 51.2307 34.0603 50.6157C34.0603 50.0008 33.3948 49.5024 32.5742 49.5024H32.5535C31.7329 49.5024 31.0676 50.0008 31.0676 50.6157C31.0676 51.2307 31.7329 51.729 32.5535 51.729Z" fill="#906E50"/>
<path d="M37.7212 51.729C38.5418 51.729 39.2071 51.2307 39.2071 50.6157C39.2071 50.0008 38.5418 49.5024 37.7212 49.5024H37.7005C36.8798 49.5024 36.2144 50.0008 36.2144 50.6157C36.2144 51.2307 36.8798 51.729 37.7005 51.729H37.7212Z" fill="#906E50"/>
<path d="M42.8679 51.729C43.6887 51.729 44.354 51.2307 44.354 50.6157C44.354 50.0008 43.6887 49.5024 42.8679 49.5024H42.8474C42.0268 49.5024 41.3613 50.0008 41.3613 50.6157C41.3613 51.2307 42.0268 51.729 42.8474 51.729H42.8679Z" fill="#906E50"/>
</g>
<defs>
<clipPath id="clip0_19_289">
<rect width="90" height="76" fill="white"/>
</clipPath>
</defs>
</svg>
