<svg width="90" height="78" viewBox="0 0 90 78" fill="none" xmlns="http://www.w3.org/2000/svg">
<g clip-path="url(#clip0_19_297)">
<path d="M42.2339 76.6554H9.83141C5.35763 76.6554 1.73077 73.8572 1.73077 70.4055V25.5592C1.73077 23.3363 3.26098 21.2807 5.74971 20.1608L26.0327 11.0322L46.3156 20.1608C48.8044 21.2807 50.3346 23.3363 50.3346 25.5592V70.4055C50.3346 73.8572 46.7078 76.6554 42.2339 76.6554Z" stroke="#906E50" stroke-width="2" stroke-miterlimit="10" stroke-linecap="round" stroke-linejoin="round"/>
<path d="M48.5197 74.3025C50.8644 75.1937 53.7222 75.1971 56.1557 74.1132L84.217 61.6135C88.0915 59.8876 89.419 56.0654 87.1821 53.0762L58.1184 14.2379C56.6778 12.3129 54.0204 11.1231 51.1396 11.1131L26.0446 11.0264L26.0392 11.0353" stroke="#906E50" stroke-width="2" stroke-miterlimit="10" stroke-linecap="round" stroke-linejoin="round"/>
<path d="M33.4834 36.8406C32.9304 36.3554 29.5088 34.0389 23.3825 35.4494C17.7572 36.7446 16.36 42.627 20.1829 44.9184C22.3778 46.234 25.6804 47.3159 30.1316 48.5183C40.0941 51.2097 36.4113 61.9471 26.2775 61.9987C22.3227 62.0188 20.4739 61.8269 17 60.0901" stroke="#906E50" stroke-width="2" stroke-miterlimit="10" stroke-linecap="round" stroke-linejoin="round"/>
<path d="M25.8129 31.3438V65.7178" stroke="#906E50" stroke-width="2" stroke-miterlimit="10" stroke-linecap="round" stroke-linejoin="round"/>
<path d="M26.0325 20.4067V1.34473" stroke="#906E50" stroke-width="2" stroke-miterlimit="10" stroke-linecap="round" stroke-linejoin="round"/>
</g>
<defs>
<clipPath id="clip0_19_297">
<rect width="90" height="78" fill="white"/>
</clipPath>
</defs>
</svg>
