<svg width="76" height="62" viewBox="0 0 76 62" fill="none" xmlns="http://www.w3.org/2000/svg">
<g clip-path="url(#clip0_51_422)">
<path d="M62.2453 34.0238C55.3375 34.0238 49.7178 40.0312 49.7178 47.4157C49.7178 54.7998 55.337 60.807 62.2443 60.8076C63.7998 60.8077 63.8331 58.2156 62.2453 58.2156C56.6745 58.2156 52.1424 53.3709 52.1424 47.4157C52.1424 41.4606 56.6745 36.6158 62.2453 36.6158C67.8161 36.6158 72.3481 41.4606 72.3481 47.4157V50.8717C72.3481 52.0631 71.442 53.0317 70.3276 53.0317C69.2131 53.0317 68.307 52.0631 68.307 50.8717C68.307 50.8717 68.307 42.2659 68.307 42.2319C68.307 40.5567 65.8824 40.5506 65.8824 42.2652C64.866 41.4427 63.6151 40.9357 62.2453 40.9357C58.9035 40.9357 56.1835 43.8433 56.1835 47.4157C56.1835 50.9881 58.9035 53.8956 62.2453 53.8956C63.7281 53.8956 65.0705 53.301 66.1252 52.3521C66.7109 54.2452 68.3625 55.6237 70.3276 55.6237C72.7791 55.6237 74.7729 53.4924 74.7729 50.8717V47.4157C74.7729 40.0312 69.1532 34.0238 62.2453 34.0238ZM62.2453 51.3037C60.2405 51.3037 58.6083 49.5589 58.6083 47.4157C58.6083 45.2726 60.2405 43.5278 62.2453 43.5278C64.2501 43.5278 65.8824 45.2726 65.8824 47.4157C65.8824 49.5589 64.2501 51.3037 62.2453 51.3037Z" fill="#906E50" stroke="#906E50"/>
<path d="M46.0824 46.1199H8.90377C7.78604 46.1199 6.75365 45.7385 5.90113 45.0999L25.1063 27.8611C25.1063 27.8611 30.3845 31.7842 30.3897 31.7881C32.9504 33.6913 36.5193 33.659 39.1446 31.7881L44.4275 27.8615C44.4275 27.8615 51.7999 34.488 51.8487 34.5317C52.9921 35.5595 54.6422 33.6552 53.4085 32.5475L46.4897 26.3288L65.8839 11.9138V30.9298C65.8839 32.583 68.3087 32.6215 68.3087 30.9309V9.40025C68.3087 4.87442 64.8642 1.19232 60.6305 1.19232H8.90377C4.67004 1.19232 1.22559 4.87442 1.22559 9.40025V40.504C1.22559 45.0298 4.67004 48.7119 8.90377 48.7119H46.0821C47.592 48.7119 47.6692 46.1199 46.0824 46.1199ZM8.90377 3.7843H60.6305C63.3345 3.7843 65.5419 5.98784 65.8271 8.79867L37.7617 29.6585C35.9716 30.9882 33.5627 30.9882 31.7726 29.6585L3.70721 8.79867C3.99233 5.98784 6.19977 3.7843 8.90377 3.7843ZM3.65028 40.504V11.9138L23.0437 26.3281L4.30006 43.1525C3.899 42.3596 3.65028 41.4667 3.65028 40.504Z" fill="#906E50" stroke="#906E50"/>
</g>
<defs>
<clipPath id="clip0_51_422">
<rect width="76" height="62" fill="white"/>
</clipPath>
</defs>
</svg>
