<svg width="77" height="60" viewBox="0 0 77 60" fill="none" xmlns="http://www.w3.org/2000/svg">
<g clip-path="url(#clip0_42_399)">
<path d="M66.2414 26.4008C68.4843 24.4562 69.9695 21.2216 69.9695 17.5756C69.9695 11.6111 66.0595 6.78716 61.2252 6.78716C56.3908 6.78716 52.4809 11.6111 52.4809 17.5756C52.4809 21.2216 53.9509 24.4562 56.209 26.4008C54.2843 27.2235 52.5263 28.4949 51.0412 30.1403C48.9953 27.9901 46.5857 26.3447 43.9488 25.3724C47.1465 22.9791 49.2984 18.6226 49.2984 13.6678C49.2984 6.11406 44.3428 0 38.2203 0C32.0977 0 27.1422 6.13275 27.1422 13.6678C27.1422 18.6226 29.279 22.9791 32.4918 25.3724C29.8852 26.3447 27.5059 27.9714 25.4752 30.0842C23.99 28.4762 22.2623 27.2235 20.368 26.4195C22.6108 24.4749 24.0961 21.2403 24.0961 17.5943C24.0961 11.6298 20.1862 6.80586 15.3518 6.80586C10.5174 6.80586 6.60747 11.6298 6.60747 17.5943C6.60747 21.2403 8.07748 24.4749 10.3355 26.4195C4.3191 28.981 0 36.0299 0 44.3129V45.5469C0 45.5843 0.0303095 45.6217 0.060619 45.6217H18.5949C18.4888 46.6501 18.4282 47.7158 18.4282 48.7816V50.053C18.4282 55.55 22.035 60 26.4905 60H49.9804C54.4358 60 58.0427 55.55 58.0427 50.053V48.7816C58.0427 47.7158 57.9821 46.6501 57.876 45.6217H76.5314C76.5618 45.6217 76.5921 45.5843 76.5921 45.5469V44.3129C76.5618 36.0112 72.2579 28.9623 66.2414 26.4008ZM54.9056 17.5569C54.9056 13.2565 57.7395 9.76005 61.2252 9.76005C64.7108 9.76005 67.5447 13.2565 67.5447 17.5569C67.5447 21.8012 64.7714 25.2602 61.3464 25.3537C61.3009 25.3537 61.2706 25.3537 61.2252 25.3537C61.1797 25.3537 61.1494 25.3537 61.104 25.3537C57.6638 25.2789 54.9056 21.8199 54.9056 17.5569ZM29.5366 13.6678C29.5366 7.77813 33.4162 2.99159 38.19 2.99159C42.9637 2.99159 46.8433 7.77813 46.8433 13.6678C46.8433 19.3518 43.2213 24.0075 38.6901 24.3254C38.5233 24.3254 38.3567 24.3254 38.19 24.3254C38.0233 24.3254 37.8565 24.3254 37.6899 24.3254C33.1586 24.0075 29.5366 19.3518 29.5366 13.6678ZM8.98679 17.5569C8.98679 13.2565 11.8207 9.76005 15.3063 9.76005C18.7919 9.76005 21.6258 13.2565 21.6258 17.5569C21.6258 21.8012 18.8525 25.2602 15.4276 25.3537C15.3821 25.3537 15.3518 25.3537 15.3063 25.3537C15.2608 25.3537 15.2305 25.3537 15.1851 25.3537C11.7601 25.2789 8.98679 21.8199 8.98679 17.5569ZM19.0192 42.6114H2.45507C3.13703 34.6463 8.59271 28.4014 15.2154 28.3453C15.2457 28.3453 15.276 28.3453 15.3063 28.3453C15.3366 28.3453 15.3669 28.3453 15.3972 28.3453C18.5494 28.364 21.4288 29.8037 23.6566 32.1409C21.4742 35.0577 19.8527 38.6476 19.0192 42.6114ZM55.5876 50.053C55.5876 53.886 53.0567 57.0084 49.9501 57.0084H26.4602C23.3535 57.0084 20.8226 53.886 20.8226 50.053V48.7816C20.8226 37.1705 28.3394 27.6722 37.6899 27.3356C37.8565 27.3543 38.0384 27.3543 38.2051 27.3543C38.3719 27.3543 38.5537 27.3543 38.7204 27.3356C48.0709 27.6722 55.5876 37.1705 55.5876 48.7816V50.053ZM57.391 42.6114C56.5575 38.6663 54.9663 35.1325 52.7991 32.2157C55.042 29.8224 57.9517 28.3827 61.1343 28.3453C61.1646 28.3453 61.1949 28.3453 61.2252 28.3453C61.2554 28.3453 61.2858 28.3453 61.3161 28.3453C67.9387 28.4014 73.3945 34.6463 74.0764 42.6114H57.391Z" fill="white"/>
</g>
<defs>
<clipPath id="clip0_42_399">
<rect width="77" height="60" fill="white"/>
</clipPath>
</defs>
</svg>
