<svg width="68" height="68" viewBox="0 0 68 68" fill="none" xmlns="http://www.w3.org/2000/svg">
<g clip-path="url(#clip0_42_378)" filter="url(#filter0_d_42_378)">
<path d="M60.7917 36.887C60.3138 37.0188 60.0358 37.5045 60.1706 37.9716C60.5759 39.3756 60.7815 40.8349 60.7815 42.3087C60.7815 51.0932 53.4712 58.2397 44.4858 58.2397C39.8119 58.2397 35.3563 56.273 32.2616 52.8437C31.9332 52.48 31.3651 52.4452 30.9927 52.7661C30.6204 53.0872 30.5849 53.6426 30.9133 54.0067C34.3493 57.814 39.2962 59.9976 44.4858 59.9976C54.4627 59.9976 62.5795 52.0623 62.5795 42.3087C62.5795 40.6734 62.3513 39.0536 61.9009 37.4942C61.7662 37.0269 61.2692 36.7553 60.7917 36.887Z" fill="white"/>
<path d="M25.1512 20.564C20.8212 20.564 17.0574 23.4275 15.9983 27.5276C15.8766 27.9982 16.1684 28.4761 16.6498 28.5948C17.1314 28.714 17.62 28.4285 17.7416 27.9578C18.5988 24.6395 21.6457 22.3217 25.1512 22.3217C29.3653 22.3217 32.7937 25.6735 32.7937 29.7934C32.7937 33.9132 29.3652 37.265 25.1512 37.265C21.6457 37.265 18.5988 34.9474 17.7416 31.629C17.62 31.1583 17.1311 30.8728 16.6498 30.992C16.1684 31.1108 15.8766 31.5887 15.9983 32.0592C17.0574 36.1593 20.8212 39.0227 25.1512 39.0227C30.3568 39.0227 34.5918 34.8824 34.5918 29.7933C34.5918 24.7042 30.3567 20.564 25.1512 20.564Z" fill="white"/>
<path d="M30.2189 29.7934C30.2189 27.062 27.9459 24.8398 25.152 24.8398C22.358 24.8398 20.085 27.062 20.085 29.7934C20.085 32.5248 22.3579 34.747 25.152 34.747C27.9458 34.7469 30.2189 32.5247 30.2189 29.7934ZM21.883 29.7934C21.883 28.0313 23.3494 26.5976 25.152 26.5976C26.9544 26.5976 28.4208 28.0311 28.4208 29.7934C28.4208 31.5557 26.9544 32.9892 25.152 32.9892C23.3495 32.9891 21.883 31.5556 21.883 29.7934Z" fill="white"/>
<path d="M43.1522 47.4945H43.1544C43.4122 47.4945 43.6575 47.3863 43.8282 47.1975L50.8282 39.4519C51.1571 39.0881 51.1218 38.5327 50.7497 38.2113C50.3775 37.8898 49.8095 37.9242 49.4808 38.288L43.1578 45.2843L39.4937 41.1888C39.1669 40.8235 38.5989 40.7863 38.2252 41.1059C37.8514 41.4256 37.8134 41.9808 38.1403 42.3461L42.4778 47.1941C42.6479 47.3843 42.8936 47.4938 43.1522 47.4945Z" fill="white"/>
<path d="M64 19.7653C64 18.6439 63.4838 17.6388 62.6723 16.9631C63.4838 16.2873 64 15.2822 64 14.1608C64 12.1311 62.3108 10.4797 60.2345 10.4797L44.7992 10.4796V6.00011C44.7992 4.38468 44.1522 2.86922 42.9776 1.73308C41.803 0.596949 40.2472 -0.0154733 38.594 -0.00223108C37.4556 0.00972205 36.5295 0.924722 36.5295 2.03765V5.03648C36.5295 5.52199 36.932 5.91539 37.4285 5.91539C37.925 5.91539 38.3275 5.52199 38.3275 5.03648V2.03765C38.3275 1.88379 38.4556 1.75711 38.6131 1.75558C38.629 1.75535 38.6448 1.75523 38.6607 1.75523C39.8114 1.75523 40.8938 2.19011 41.7131 2.98265C42.5438 3.78609 43.0012 4.85789 43.0012 6.00023V10.5756C43.0012 11.4919 43.7637 12.2374 44.7011 12.2374H49.6803C49.3276 12.7976 49.1238 13.4563 49.1238 14.1608C49.1238 15.2822 49.64 16.2873 50.4515 16.9631C49.64 17.6388 49.1238 18.6441 49.1238 19.7653C49.1238 20.8867 49.64 21.8919 50.4515 22.5676C49.64 23.2433 49.1238 24.2486 49.1238 25.3699C49.1238 26.7716 49.9296 27.9926 51.112 28.6141C50.5639 29.2536 50.2333 30.0769 50.2333 30.9744C50.2333 31.2013 50.2555 31.423 50.2959 31.6386C48.5627 30.7329 46.5847 30.2186 44.486 30.2186C42.8214 30.2186 41.2332 30.5425 39.7824 31.1279C38.8523 30.1316 38.3277 28.8253 38.3277 27.4665V9.13805C38.3277 8.65254 37.9251 8.25914 37.4286 8.25914C36.9321 8.25914 36.5296 8.65254 36.5296 9.13805V12.8704C35.822 12.8845 35.1286 13.1588 34.6051 13.6706L32.5707 15.6596C32.2787 15.9452 31.8359 16.0298 31.4688 15.8709C31.2335 15.7691 30.993 15.6718 30.7538 15.5818C30.3797 15.4412 30.1283 15.0751 30.1283 14.6709V11.8579C30.1283 10.3457 28.8698 9.11531 27.323 9.11531H22.9803C21.4334 9.11531 20.175 10.3457 20.175 11.8579V14.6709C20.175 15.0751 19.9236 15.4412 19.5494 15.5818C19.3102 15.6718 19.0698 15.7691 18.8342 15.8709C18.4671 16.0298 18.0245 15.9451 17.7325 15.6596L15.6981 13.6706C14.6043 12.6013 12.8244 12.6013 11.7306 13.6706L8.65993 16.6726C7.56612 17.7421 7.56612 19.482 8.65993 20.5514L10.6945 22.5404C10.9864 22.8258 11.0733 23.2586 10.9105 23.6174C10.8067 23.8466 10.7072 24.0818 10.6148 24.3166C10.4709 24.6824 10.0965 24.9281 9.68302 24.9281H6.80531C5.25839 24.9281 4 26.1585 4 27.6707V31.9163C4 33.4284 5.25851 34.6588 6.80531 34.6588H9.68278C10.0962 34.6588 10.4707 34.9045 10.6145 35.2704C10.7069 35.5051 10.8063 35.7403 10.9102 35.9697C11.0729 36.3285 10.986 36.7613 10.6941 37.0465L8.65957 39.0355C7.56576 40.105 7.56576 41.8449 8.65957 42.9143L11.7303 45.9163C12.8241 46.9856 14.6039 46.9856 15.6977 45.9163L17.7321 43.9273C18.0241 43.6417 18.4669 43.5571 18.834 43.716C19.0701 43.8182 19.3108 43.9154 19.5489 44.005C19.9231 44.1457 20.1745 44.5118 20.1745 44.9159V47.7291C20.1745 49.2413 21.433 50.4716 22.9798 50.4716H27.3225C28.8695 50.4716 30.1279 49.2413 30.1279 47.7291V44.9159C30.1279 44.5118 30.3793 44.1457 30.7531 44.0051C30.9916 43.9154 31.2323 43.8182 31.4686 43.7159C31.7026 43.6146 31.9634 43.6125 32.2002 43.6984C32.4436 45.7899 33.2358 47.7666 34.5293 49.4802C34.8242 49.8709 35.3871 49.9536 35.7865 49.6656C36.1861 49.3773 36.2709 48.8271 35.9762 48.4365C34.6291 46.6519 33.9169 44.5328 33.9169 42.3087C33.9169 36.6115 38.658 31.9764 44.4856 31.9764C50.3132 31.9764 55.0543 36.6115 55.0543 42.3087C55.0543 48.0059 50.3132 52.641 44.4856 52.641C42.4633 52.641 40.498 52.081 38.8023 51.0215C38.3841 50.76 37.8282 50.8794 37.5607 51.2886C37.2933 51.6976 37.4157 52.2411 37.834 52.5025C39.8193 53.743 42.1194 54.3988 44.4856 54.3988C51.3046 54.3988 56.8523 48.9752 56.8523 42.3087C56.8523 39.4072 55.801 36.7415 54.0519 34.6555H58.109C60.1853 34.6555 61.8745 33.0041 61.8745 30.9744C61.8745 30.2139 61.6372 29.5064 61.2314 28.919C62.8252 28.4905 63.9998 27.0621 63.9998 25.3697C63.9998 24.2483 63.4836 23.2432 62.6721 22.5675C63.4838 21.8918 64 20.8867 64 19.7653ZM32.1273 41.8913C31.6617 41.8464 31.185 41.9162 30.7405 42.1086C30.5318 42.199 30.3192 42.285 30.1082 42.3642C29.0446 42.7642 28.3302 43.7896 28.3302 44.9158V47.729C28.3302 48.272 27.8783 48.7137 27.3229 48.7137H22.9801C22.4247 48.7137 21.9729 48.2719 21.9729 47.729V44.9158C21.9729 43.7896 21.2583 42.7642 20.1944 42.3641C19.9838 42.285 19.7712 42.1991 19.5625 42.1086C18.5211 41.6575 17.2746 41.8887 16.4609 42.6842L14.4265 44.6731C14.0338 45.0571 13.3947 45.0571 13.0019 44.6731L9.93115 41.6711C9.53845 41.2872 9.53845 40.6624 9.93115 40.2784L11.9657 38.2894C12.7794 37.4939 13.0159 36.2754 12.5544 35.2573C12.4626 35.0547 12.3746 34.8468 12.2929 34.6393C11.8839 33.5995 10.8351 32.9009 9.6829 32.9009H6.80531C6.24983 32.9009 5.79804 32.4591 5.79804 31.9161V27.6706C5.79804 27.1275 6.24995 26.6858 6.80531 26.6858H9.68278C10.835 26.6858 11.8838 25.9872 12.2927 24.9475C12.3743 24.7399 12.4623 24.5319 12.5541 24.3295C13.0157 23.3113 12.7791 22.0928 11.9656 21.2973L9.93103 19.3083C9.53833 18.9244 9.53833 18.2997 9.93103 17.9156L13.0017 14.9136C13.3945 14.5296 14.0336 14.5296 14.4264 14.9136L16.4608 16.9027C17.2745 17.6981 18.5209 17.9295 19.5623 17.4781C19.7705 17.3878 19.9832 17.3019 20.1945 17.2223C21.2581 16.8225 21.9726 15.7971 21.9726 14.6708V11.8577C21.9726 11.3147 22.4246 10.873 22.9799 10.873H27.3227C27.8781 10.873 28.3299 11.3148 28.3299 11.8577V14.6708C28.3299 15.7971 29.0445 16.8225 30.1081 17.2223C30.3194 17.3019 30.5322 17.3878 30.7401 17.4781C31.7816 17.9292 33.0282 17.698 33.8418 16.9025L35.8763 14.9135C36.0547 14.7391 36.2886 14.6438 36.5294 14.6302V27.4665C36.5294 29.1009 37.1046 30.6763 38.1326 31.9397C34.6473 33.9885 32.2746 37.6684 32.1273 41.8913ZM58.1094 32.8977H54.0016L53.9987 32.8976H53.9958C52.9123 32.8961 52.0314 32.034 52.0314 30.9744C52.0314 29.9139 52.914 29.051 53.9988 29.051H58.1095C59.1943 29.051 60.0769 29.9139 60.0769 30.9744C60.0769 32.035 59.1942 32.8977 58.1094 32.8977ZM60.2347 27.2932H52.8893C51.8045 27.2932 50.9219 26.4304 50.9219 25.3698C50.9219 24.3093 51.8045 23.4465 52.8893 23.4465H60.2347C61.3195 23.4465 62.2021 24.3094 62.2021 25.3699C62.2021 26.4305 61.3195 27.2932 60.2347 27.2932ZM60.2347 21.6887H52.8893C51.8045 21.6887 50.9219 20.8259 50.9219 19.7653C50.9219 18.7048 51.8045 17.842 52.8893 17.842H60.2347C61.3195 17.842 62.2021 18.7048 62.2021 19.7653C62.2021 20.8259 61.3195 21.6887 60.2347 21.6887ZM60.2347 16.0842H52.8893C51.8045 16.0842 50.9219 15.2214 50.9219 14.1608C50.9219 13.1003 51.8045 12.2375 52.8893 12.2375H60.2347C61.3195 12.2375 62.2021 13.1003 62.2021 14.1608C62.2021 15.2214 61.3195 16.0842 60.2347 16.0842Z" fill="white"/>
</g>
<defs>
<filter id="filter0_d_42_378" x="0" y="0" width="68" height="68" filterUnits="userSpaceOnUse" color-interpolation-filters="sRGB">
<feFlood flood-opacity="0" result="BackgroundImageFix"/>
<feColorMatrix in="SourceAlpha" type="matrix" values="0 0 0 0 0 0 0 0 0 0 0 0 0 0 0 0 0 0 127 0" result="hardAlpha"/>
<feOffset dy="4"/>
<feGaussianBlur stdDeviation="2"/>
<feComposite in2="hardAlpha" operator="out"/>
<feColorMatrix type="matrix" values="0 0 0 0 0 0 0 0 0 0 0 0 0 0 0 0 0 0 0.25 0"/>
<feBlend mode="normal" in2="BackgroundImageFix" result="effect1_dropShadow_42_378"/>
<feBlend mode="normal" in="SourceGraphic" in2="effect1_dropShadow_42_378" result="shape"/>
</filter>
<clipPath id="clip0_42_378">
<rect width="60" height="60" fill="white" transform="translate(4)"/>
</clipPath>
</defs>
</svg>
