<svg width="60" height="60" viewBox="0 0 60 60" fill="none" xmlns="http://www.w3.org/2000/svg">
<g clip-path="url(#clip0_42_389)">
<path d="M16 24H28C28.5304 24 29.0391 23.7893 29.4142 23.4142C29.7893 23.0392 30 22.5305 30 22V16C30 15.4696 29.7893 14.9609 29.4142 14.5858C29.0391 14.2107 28.5304 14 28 14H16C15.4696 14 14.9609 14.2107 14.5858 14.5858C14.2107 14.9609 14 15.4696 14 16V22C14 22.5305 14.2107 23.0392 14.5858 23.4142C14.9609 23.7893 15.4696 24 16 24ZM16 16H28V22H16V16Z" fill="white"/>
<path d="M27 26H16C15.7348 26 15.4804 26.1054 15.2929 26.2929C15.1054 26.4804 15 26.7348 15 27C15 27.2652 15.1054 27.5196 15.2929 27.7071C15.4804 27.8947 15.7348 28 16 28H27C27.2652 28 27.5196 27.8947 27.7071 27.7071C27.8946 27.5196 28 27.2652 28 27C28 26.7348 27.8946 26.4804 27.7071 26.2929C27.5196 26.1054 27.2652 26 27 26Z" fill="white"/>
<path d="M23 30H16C15.7348 30 15.4804 30.1054 15.2929 30.2929C15.1054 30.4804 15 30.7348 15 31C15 31.2652 15.1054 31.5196 15.2929 31.7071C15.4804 31.8947 15.7348 32 16 32H23C23.2652 32 23.5196 31.8947 23.7071 31.7071C23.8946 31.5196 24 31.2652 24 31C24 30.7348 23.8946 30.4804 23.7071 30.2929C23.5196 30.1054 23.2652 30 23 30Z" fill="white"/>
<path d="M41 31C41.2652 31 41.5196 30.8947 41.7071 30.7071C41.8946 30.5196 42 30.2652 42 30V29C42 28.7348 41.8946 28.4804 41.7071 28.2929C41.5196 28.1054 41.2652 28 41 28C40.7348 28 40.4804 28.1054 40.2929 28.2929C40.1054 28.4804 40 28.7348 40 29V30C40 30.2652 40.1054 30.5196 40.2929 30.7071C40.4804 30.8947 40.7348 31 41 31Z" fill="white"/>
<path d="M45 44C45.2652 44 45.5196 43.8947 45.7071 43.7071C45.8946 43.5196 46 43.2652 46 43C46 42.7348 45.8946 42.4804 45.7071 42.2929C45.5196 42.1054 45.2652 42 45 42C44.2043 42 43.4413 41.6839 42.8787 41.1213C42.3161 40.5587 42 39.7957 42 39V34C42 33.7348 41.8946 33.4804 41.7071 33.2929C41.5196 33.1054 41.2652 33 41 33C40.7348 33 40.4804 33.1054 40.2929 33.2929C40.1054 33.4804 40 33.7348 40 34V39C40.0016 40.3256 40.5289 41.5965 41.4662 42.5338C42.4036 43.4711 43.6744 43.9984 45 44Z" fill="white"/>
<path d="M58 27H54V26C54 25.4696 53.7893 24.9609 53.4142 24.5858C53.0391 24.2107 52.5304 24 52 24H48V13C48 12.2044 47.6839 11.4413 47.1213 10.8787C46.5587 10.3161 45.7956 9.99998 45 9.99998H38V7.00001C38 6.20436 37.6839 5.4413 37.1213 4.87869C36.5587 4.31608 35.7956 4.00001 35 4.00001H22.834C22.7006 4.00006 22.5684 3.97356 22.4454 3.92205C22.3223 3.87055 22.2106 3.79507 22.117 3.70001L19.294 0.880011C19.0157 0.600165 18.6847 0.378293 18.3202 0.22724C17.9556 0.076187 17.5646 -0.0010464 17.17 1.07065e-05H3C2.20435 1.07065e-05 1.44129 0.316081 0.878679 0.87869C0.31607 1.4413 0 2.20436 0 3.00001V35.759C0.00327503 36.6113 0.177346 37.4543 0.511929 38.2382C0.846512 39.0221 1.33482 39.731 1.948 40.323C3.02906 41.3879 4.4826 41.9895 6 42H36.525C37.3084 44.1981 38.9121 46.0078 41 47.05V52C39.6744 52.0016 38.4036 52.5289 37.4662 53.4662C36.5289 54.4036 36.0016 55.6744 36 57V58C36 58.5305 36.2107 59.0392 36.5858 59.4142C36.9608 59.7893 37.4696 60 38 60H52C52.5304 60 53.0391 59.7893 53.4142 59.4142C53.7893 59.0392 54 58.5305 54 58V57C53.9984 55.6744 53.4711 54.4036 52.5338 53.4662C51.5964 52.5289 50.3256 52.0016 49 52V47.05C50.1638 46.4695 51.1884 45.6442 52.0034 44.6307C52.8185 43.6171 53.4047 42.4393 53.722 41.178C55.6767 39.8086 57.2693 37.9847 58.3629 35.8633C59.4566 33.7419 60.0183 31.3866 60 29C60 28.4696 59.7893 27.9609 59.4142 27.5858C59.0391 27.2107 58.5304 27 58 27ZM45 12C45.2652 12 45.5196 12.1054 45.7071 12.2929C45.8946 12.4805 46 12.7348 46 13V24H38C37.4696 24 36.9608 24.2107 36.5858 24.5858C36.2107 24.9609 36 25.4696 36 26V27H32C31.4696 27 30.9609 27.2107 30.5858 27.5858C30.2107 27.9609 30 28.4696 30 29C29.9967 30.9705 30.3831 32.9222 31.1371 34.7428C31.891 36.5633 32.9975 38.2168 34.393 39.608C34.529 39.744 34.683 39.869 34.826 40H10.469C11.4553 38.9012 12.0005 37.4766 12 36V13C12 12.7348 12.1054 12.4805 12.2929 12.2929C12.4804 12.1054 12.7348 12 13 12H45ZM35.809 38.194C34.5992 36.9884 33.6398 35.5554 32.9861 33.9775C32.3324 32.3996 31.9972 30.708 32 29H36V38.367C35.938 38.308 35.868 38.254 35.809 38.194ZM2 35.759V3.00001C2 2.7348 2.10536 2.48044 2.29289 2.29291C2.48043 2.10537 2.73478 2.00001 3 2.00001H17.17C17.3019 1.99978 17.4325 2.02563 17.5544 2.07609C17.6762 2.12655 17.7869 2.20061 17.88 2.29401L20.7 5.11701C20.9794 5.39829 21.312 5.6212 21.6783 5.77279C22.0447 5.92437 22.4375 6.00161 22.834 6.00001H35C35.2652 6.00001 35.5196 6.10537 35.7071 6.29291C35.8946 6.48044 36 6.73479 36 7.00001V9.99998H13C12.2043 9.99998 11.4413 10.3161 10.8787 10.8787C10.3161 11.4413 10 12.2044 10 13V36C10.0045 37.0372 9.60438 38.0352 8.88474 38.7821C8.1651 39.529 7.18262 39.9659 6.146 40C5.62718 40.0109 5.11142 39.9179 4.62903 39.7266C4.14665 39.5353 3.70736 39.2495 3.337 38.886C2.91642 38.4807 2.5814 37.9951 2.35175 37.458C2.12211 36.9209 2.0025 36.3432 2 35.759ZM52 57V58H38V57C38 56.2044 38.3161 55.4413 38.8787 54.8787C39.4413 54.3161 40.2043 54 41 54H49C49.7956 54 50.5587 54.3161 51.1213 54.8787C51.6839 55.4413 52 56.2044 52 57ZM47 52H43V47.768C44.3154 48.0773 45.6846 48.0773 47 47.768V52ZM52 39C52 40.8565 51.2625 42.637 49.9497 43.9498C48.637 45.2625 46.8565 46 45 46C43.1435 46 41.363 45.2625 40.0502 43.9498C38.7375 42.637 38 40.8565 38 39V26H52V39ZM54.193 38.192C54.133 38.253 54.062 38.308 54 38.367V29H58C58.0029 30.7075 57.668 32.3987 57.0146 33.9763C56.3612 35.5538 55.4023 36.9866 54.193 38.192Z" fill="white"/>
</g>
<defs>
<clipPath id="clip0_42_389">
<rect width="60" height="60" fill="white"/>
</clipPath>
</defs>
</svg>
