<?xml version="1.0" encoding="utf-8"?>
<!-- Generator: Adobe Illustrator 26.0.1, SVG Export Plug-In . SVG Version: 6.00 Build 0)  -->
<svg version="1.1" id="Layer_1" xmlns="http://www.w3.org/2000/svg" xmlns:xlink="http://www.w3.org/1999/xlink" x="0px" y="0px"
	 viewBox="0 0 972 604" style="enable-background:new 0 0 972 604;" xml:space="preserve">
<style type="text/css">
	.st0{fill:#C1A052;}
</style>
<g id="U9YFkT.tif">
	<g>
		<path class="st0" d="M711,463.8c-3.1,0.1-6.3,0.2-9.4,0.2c-0.3,0-0.8-0.8-0.8-1.2c0-20.5,0-41,0.1-61.5c0-0.1,0.1-0.2,0.2-0.3
			c3.5,0.3,8.3,4.2,9.3,7.6c0.2,0.6,0.5,1.1,0.8,1.7C711,428.2,711,446,711,463.8z"/>
		<path class="st0" d="M367.1,116.7c2.8,3,1.9,5.1-2.1,7c-7.4,3.3-14.7,6.8-21.7,10.7c-4.4,2.4-8.5,4.5-13.7,3.6
			c-4.2-0.8-7.9-2.6-11.6-4.9c-4.8-2.9-9.7-5.7-14.6-8.4c-1.8-1-2.5-2.3-2.2-4.2c0.3-1.9,2.2-3.1,4-2.1c5.9,3.3,11.8,6.7,17.6,10.1
			c3.5,2.1,7.3,3.6,11.3,3c2-0.3,3.9-1.5,5.7-2.6c7.2-4.4,14.7-8.2,22.7-11.1c0.7-0.2,1.2-0.7,1.8-1.1
			C365.3,116.7,366.2,116.7,367.1,116.7z"/>
		<path class="st0" d="M629.2,137.8c-7.4,0-9,0.3-11.2,2.3c10.8-0.6,19.3,3.2,25.7,11.3c-0.1,0.2-0.2,0.4-0.3,0.6
			c-3.2-1-6.4-2.2-9.7-3.1c-4.1-1.1-8.2-1.7-12.2,0.7c-0.1,0.1-0.2,0.3-0.6,0.6c2.8,0.2,5.3,0.3,7.9,0.7c8.1,1.3,15.8,3.7,20.9,10.9
			c2.6,3.6,3.5,7.8,2.9,12.5c-0.4-0.5-0.8-1-1.2-1.5c-2.7-4.5-5.9-8.7-10.6-11.3c-3.2-1.8-6.6-2.5-10.6-2.1c3.1,2.2,6.1,4,8.8,6.2
			c6.3,5.1,10.1,11.5,9.4,19.9c-0.2,2.9-1.4,5.6-2.2,8.4c-0.2,0.5-0.8,0.9-1.4,1.6c-1.3-9.2-3.3-17.7-10.1-24.1
			c-1.4-1.3-3.4-2.1-5.1-3.1c-0.1,0.1-0.2,0.3-0.3,0.4c1.8,2.7,3.7,5.4,5.3,8.2c2.7,5,4,10.3,2.5,15.9c-1,3.8-3.3,7-6.6,9.2
			c-0.2-0.1-0.4-0.2-0.6-0.2c0.1-0.8,0.2-1.6,0.3-2.4c1.5-8.2-0.5-15.4-6.5-21.3c-0.3-0.3-0.8-0.5-1-0.6c0.2,4.9,0.7,9.9,0.7,14.8
			c0,6-1.6,11.6-5.2,16.5c-0.8,1.1-1.9,2-2.9,3c-0.3,0.3-0.9,0.4-1.3,0.5c-0.2-0.4-0.4-0.8-0.4-1.3c-0.2-3.1-0.2-6.3-0.5-9.4
			c-0.4-4.8-1.3-9.4-4.2-13.6c-0.1,0.7-0.3,1.4-0.2,2.2c0.1,2,0.3,4,0.3,6c0.3,9.1,0.5,18.2,0.9,27.3c0.1,3.5,0.4,6.9,0.7,10.4
			c0.1,1,0.5,2,1,2.9c1.7,3,1.5,6.3,1.8,9.5c0.5,6.2,0.8,12.5,1.3,18.7c0.2,2.5,2.6,2.9,4.1,4.2c2.8,2.3,5.7,4.4,8.4,6.8
			c1.3,1.1,2,2.7,1.2,4.5c-0.8,1.7-2.3,2.3-4.1,2.3c-14.7,0-29.5,0.1-44.2-0.1c-1.2,0-2.7-1-3.6-2c-1-1.1-0.3-2.6,0.5-3.9
			c2.3-3.7,5.8-5.9,9.4-7.8c3.1-1.7,4.1-4.2,4.2-7.4c0.2-5,0.5-10,0.8-15c0.2-2.6-0.1-5.7,1.1-7.8c3.1-4.9,1.9-10.2,2.3-15.3
			c0.7-8.6,0.7-17.2,1-25.8c0.1-3.2,0.3-6.4,0.2-9.7c-2.1,2.4-3,5.3-3.4,8.3c-0.6,4.7-0.9,9.5-1.3,14.3c-0.1,0.7-0.2,1.4-0.4,2.5
			c-4-2.7-6.1-6.2-7.6-10.1c-2.2-5.7-2.3-11.6-2-17.5c0.1-2.6,0.7-5.1,1.1-7.7c-5.9,2-9.5,13.3-7.6,24.2c-0.9-0.4-1.6-0.6-2.1-1
			c-4.5-4.1-6.1-9.2-5.2-15.3c0.8-5.7,3.5-10.5,6.9-14.9c0.3-0.4,0.6-0.7,0.8-1.1c0.1-0.2,0.2-0.5-0.1-1.2c-1.7,1.1-3.6,2.1-5.1,3.4
			c-4.9,4.2-7.2,9.9-8.5,16c-0.6,2.6-1,5.2-1.6,8.1c-1.9-2.6-2.6-5.2-3.1-7.8c-1.9-10.4,2.8-17.8,10.7-23.7c2.2-1.7,4.7-3.1,7.1-4.7
			c-4.3-0.9-9.4,0.2-13.3,3.8c-3.4,3.2-6.2,7.1-9.3,10.6c-0.7-2.3,0.1-4.8,0.8-7.2c1.5-5.2,4.8-9,9.5-11.5
			c6.2-3.4,12.8-4.9,19.9-4.9c0.4,0,0.8,0,1.2-0.1c0.1,0,0.2-0.2,0.3-0.4c-2.6-2.1-5.6-2.4-8.6-1.8c-3.8,0.8-7.5,2-11.3,3.1
			c-0.7,0.2-1.4,0.4-2.1,0.6c0.2-2.4,5.3-6.8,10.7-9.4c4.5-2.2,9.3-2.5,14.3-2.8c-0.6-0.3-1.3-0.9-1.9-1c-2.6-0.4-5.2-0.5-7.8-0.8
			c-0.5-0.1-0.9-0.3-1.4-0.5c0.2-0.4,0.4-1,0.8-1.3c4.5-3.5,9.5-3.6,14.6-1.9c2.4,0.8,4.5,2.2,6.8,3.4c1.3-4.3,2.6-8.7,4-13.1
			c0.3,0,0.5,0,0.8,0.1c2.4,4,3,8.7,4.2,13.4c6.3-4.3,12.8-6.6,20-2.8C627.9,135.6,629.6,135.9,629.2,137.8z"/>
		<path class="st0" d="M574.8,335.2c5.8-4.9,11.6-9.7,17.6-14.8c-2.5-2-4.7-3.9-7-5.7c-8.7-6.7-17.3-13.5-26.1-20
			c-6.6-4.9-13.9-8.9-21.6-11.9c-4.7-1.9-9.5-3.8-14.4-5.3c-4-1.2-8.1-2-12.2-2.6c-5-0.7-10.1-0.9-15.1-1.3c-0.2,0-0.4-0.1-0.7-0.7
			c2.7-0.8,5.3-1.8,8-2.5c7.3-1.9,14.7-2.4,22.2-2c7.4,0.4,14.6,1.9,21.6,4.5c7.8,2.9,15.3,6.4,21.9,11.5c6.2,4.7,12.1,9.8,18,14.7
			c4.7,3.9,9.3,7.7,13.9,11.7c1.1,0.9,1.9,0.9,2.9,0c10.2-8.5,20.2-17.3,30.6-25.5c9.1-7.2,19.7-11.9,30.9-14.8
			c8.4-2.1,17-3,25.6-1.9c6,0.7,11.8,2.6,17.6,4c0.3,0.1,0.4,0.4,1.1,1c-1.3,0-2,0-2.8,0c-6.3,0.1-12.5,0.9-18.6,2.3
			c-18.3,4.1-34.6,12.2-49.4,23.6c-8.4,6.4-16.5,13.1-24.8,19.6c-0.5,0.4-1.1,0.7-1.8,1.2c6.3,5.3,12.1,10.2,18,15.2
			c1.3-2.6-0.1-4.6-0.4-6.8c-0.1-1-0.5-2-0.3-3c0.1-0.8,0.6-1.8,1.3-2.2c3.1-2.2,7.8,0.2,8.1,4c0.2,2.3-0.3,4.4-1.7,6.4
			c-2,2.9-1.7,4.6,0.8,7c1.2,1.1,2.4,2.1,3.6,3.1c1.4,1.2,2.8,1.1,4.1-0.1c1-0.9,1.9-1.8,2.7-2.9c1.7-2.2,3.8-3.7,6.6-3.6
			c2.7,0,5.6,0.2,8.2,0.9c2.7,0.7,3.7,3,3.9,5.7c0.5,6.2-5,13.3-10.8,14.9c-5.1,1.4-9.5,0-13.9-1.9c-5-2.2-9.2-5.5-13.2-9.2
			c-1.1-1-1.7-0.8-2.7,0.3c-2.4,2.7-4.8,5.3-7.5,7.6c-1.6,1.4-4.1,0.7-5.3-1c-1.8-2.5-2-5.2-0.2-6.6c0.7-0.6,1.8-0.7,2.7-0.9
			c0.8-0.2,1.9,0.1,2.5-0.3c0.8-0.5,1.7-1.3,2-2.2c0.2-0.5-0.7-1.5-1.3-2c-5.3-4.3-10.7-8.6-16-12.9c-1-0.8-1.7-1-2.8-0.1
			c-5.4,4.4-10.9,8.7-16.3,13.1c-0.6,0.5-1.5,1.8-1.3,2.2c0.4,0.8,1.5,1.4,2.4,1.7c1,0.4,2.2,0.5,3.3,0.7c2.2,0.4,3.3,2,2.9,4.2
			c-0.8,4.4-4.6,6.1-8.1,3.3c-2.3-1.9-4.3-4.3-6.1-6.7c-1-1.4-1.5-1.4-2.7-0.4c-4.1,3.6-8.2,7-13.3,9.1c-2.6,1.1-5.4,2.1-8.1,2.4
			c-7.7,0.8-12.7-3.3-15.5-10c-0.8-1.9-0.8-4.2-0.7-6.2c0.2-3.1,2.2-5.1,5.1-5.6c3-0.5,6.2-1,9.1,0.5c1.5,0.8,2.9,2,4.3,3
			c0.5,0.3,0.7,0.9,1.1,1.4c3.1,3.2,4.1,3.3,7.4,0.3c0.8-0.7,1.5-1.5,2.3-2.2c2.9-2.5,1.8-4.2,0.6-6.5c-0.9-1.8-1.8-3.8-1.9-5.7
			c-0.2-4.2,3.6-6.2,7.5-5.2c2,0.5,2.5,2.9,1.8,5.4c-0.6,2.1-0.8,4.2-1.2,6.4C574.2,334.8,574.5,335,574.8,335.2z"/>
		<path class="st0" d="M464.9,401c2.8,0.1,4.6,1.5,6.4,3c2.7,2.3,4.1,5.1,4.1,8.9c-0.1,11,0.2,22-0.1,33
			c-0.2,7.2-3.2,13.4-10.1,16.8c-1.9,0.9-4.2,1.4-6.3,1.4c-30.8,0.1-61.5,0-92.3,0.1c-1.8,0-2.2-0.6-2.2-2.2c0.1-2,0.1-4,0-6
			c-0.1-1.5,0.5-2,1.9-2c10,0.1,20,0,30,0.1c4.3,0,4.5-0.2,3.7-4.6c-0.3-1.4-0.1-2.8-0.4-4.2c-1.5-5.7-5.3-8-10.6-8.4
			c-6.1-0.5-12.2-0.2-18.3-0.3c-0.7,0-1.4-0.1-2.4-0.1c3.5-5.7,7.6-9.8,14.6-9.6c2.6,0.1,5.2,0.1,7.8,0c7.4-0.4,12.4,3.3,16.1,9.4
			c2.6,4.3,3.3,8.9,3.1,13.8c-0.2,4.1,0.7,4.7,4.9,4c1.4-0.2,1.2-1.2,1.2-2.1c0-7.6,0.1-15.1,0-22.7c0-1.7,0.4-2.3,2.2-2.3
			c6,0.1,12.1,0.3,18.1,0c7-0.4,15.5,6.8,17.6,12.4c1.6,4.2,1,8.4,1.3,12.6c0.2,2.2,0.6,2.6,2.7,2c5-1.4,7.2-4.2,7.2-9.5
			c0-13.6,0-27.2,0-40.8C464.9,402.7,464.9,401.9,464.9,401z M445.3,454c0-2.8-0.1-5.2,0-7.6c0.4-6.5-4.7-9.7-10-9.9
			c-2.5-0.1-5.1,0.1-7.6-0.1c-1.5-0.1-2,0.4-2,1.9c0.1,4.7,0.1,9.5,0,14.2c0,1.2,0.5,1.5,1.6,1.4c2.7,0,5.3,0,8,0
			C438.5,454,441.8,454,445.3,454z"/>
		<path class="st0" d="M606.6,426.9c0,9.1,0,17.9,0,26.9c10.9,0,21.5,0,32.5,0c-0.5-3.8,0.8-7.6-1-11.2c-1.6-3.3-4.8-4.5-8-4.9
			c-4.4-0.5-8.9-0.4-13.4-0.5c-3-0.1-3,0-3-3c0-2,0-4,0-6c0-1,0.4-1.4,1.4-1.4c6.4,0.1,12.8-0.2,19.1,0.5
			c7.5,0.8,13.3,5.7,14.3,13.5c0.8,6,0.4,12.1,0.6,18.2c0,1.6,0,3.2,0,5c-14.2,0-28.2,0-42.4,0c0,1.9,0,3.5,0,5.2
			c-0.1,9.6-7.6,17.9-18.1,18c-5.8,0.1-10.5-1.4-13.9-6.1c-0.4-0.5-0.6-1.2-1.1-2.3c1.2,0,2,0,2.8,0c4.1-0.3,8.3-0.2,12.3-1
			c6.6-1.3,9.4-6,8.1-12.6c-0.1-0.5-1.2-1.1-1.9-1.1c-6.2-0.1-12.5,0-18.7,0c-4.1,0-4.1,0-4-4.1c0-4.7,0.1-9.4,0-14.1
			c-0.1-6.3,2.8-11.1,7.5-14.9c3.5-2.8,7.5-4.4,12.1-4.2C596.6,427,601.5,426.9,606.6,426.9z M581.6,454c5,0,9.6,0,14.2-0.1
			c0.3,0,1-1,1-1.6c0.1-4.7,0-9.5,0.1-14.2c0-1.2-0.3-1.8-1.6-1.7c-1.4,0.1-2.8-0.1-4.2,0.1c-3.7,0.4-8.1,2.5-8.6,6
			C581.8,446.1,581.8,450,581.6,454z"/>
		<path class="st0" d="M317.3,426c6,1.8,10.9,6.2,10.4,12.8c-0.2,2.6,0,5.2,0.5,7.8c1.2,5.7,6.3,8.5,12,7.1
			c5.9-1.5,7.9-4.3,8.4-10.8c0.3-5.1,0.1-10.3,0.1-15.5c0-0.4,0-0.8,0-1.5c3.9,1.4,7.2,3.1,9.1,6.7c0.8,1.6,1.3,3.6,1.3,5.3
			c0,4,0,8.1-0.8,11.9c-1.3,6-5.7,9.8-11.1,12.3c-8.5,3.9-16.2,2.1-23.1-3.9c-0.4-0.4-0.9-0.8-1.5-1.3c-1,1-2,2-3.1,2.8
			c-2.6,2.1-5.5,3.9-8.9,4.1c-5.6,0.4-11.2,1.2-16.1-2.6c-3.3-2.6-5-6-5.3-10s-0.1-8-0.2-12.1c0-1-0.1-2-0.1-2.9
			c-13.9-1.7-19.2,4.9-18.1,17.8c8.6-1,15.5,1.7,20,9.9c-0.9,0.1-1.6,0.2-2.2,0.2c-8.3,0-16.6,0-24.9,0c-2.6,0-2.7,0-2.6-2.7
			c0.2-5.8-0.1-11.7,0.9-17.4c1.7-10.1,8.2-16.5,18.9-17.1c5.6-0.3,11.3-0.1,16.9-0.1c0.3,0,0.5,0.1,1,0.2c0,1.3,0,2.5,0,3.8
			c0.1,5.5,0.1,11,0.4,16.5c0.3,4.8,2.6,6.7,7,6.6c2-0.1,4.2-0.3,6.1-0.9c4.1-1.4,4.9-5,5-8.7c0.1-5.3,0-10.6,0.1-15.9
			C317.3,427.7,317.3,426.9,317.3,426z"/>
		<path class="st0" d="M315.3,277c0.4-9.3,1.4-18.6,3.8-27.7c2.8-10.9,6.9-21.3,12.7-30.9c8.5-14.2,19.7-25.9,33.9-34.5
			c7-4.3,14.6-7.5,22.7-9.4c5.6-1.4,11.4-2.3,17.2-2.4c2.1,0,3.1,0.8,3.2,2.9c0.2,2.4-0.8,3.5-3,3.8c-4.4,0.5-8.9,0.8-13.3,1.6
			c-9,1.7-17.4,5.3-25.1,10.1c-13.6,8.5-24.2,20-32,34c-5.2,9.2-8.9,19-11.3,29.2c-2.1,9.1-3.1,18.3-2.7,27.6
			c0.3,7.3,5.2,14.3,12.8,15.8c5,1,9.2-1.1,12.6-4.8c3.4-3.7,4.8-8.3,4.9-13.2c0-7.1,0.9-14.1,3-20.9c4-13.2,11-24.4,21.8-33.1
			c6.5-5.3,13.9-8.9,22.3-10.3c2.9-0.5,5.8-0.9,8.7-1.1c2.7-0.2,3.7,0.8,3.8,3c0.1,2.5-0.9,3.5-3.6,3.7c-3.2,0.3-6.5,0.7-9.7,1.2
			c-4.5,0.7-8.6,2.7-12.5,5c-8,4.7-14.2,11.2-18.9,19.1c-3.7,6.1-6.5,12.5-7.5,19.6c-0.9,6.4-1.1,12.9-2.1,19.2
			c-0.9,6.1-3.8,11.2-8.8,15.1c-4.5,3.5-9.5,4.7-15,3.8c-6.8-1.2-11.3-5.5-14.5-11.4C315.7,287.4,315,282.3,315.3,277z"/>
		<path class="st0" d="M266.9,261.4c0,7.4-0.2,14.9,0.1,22.3c0.2,7,1.5,14,3.4,20.8c2.6,9.3,6.6,17.9,12.2,25.8
			c5.3,7.5,11.7,13.9,19.4,19c6.2,4.1,12.8,7.2,20,8.9c7.3,1.8,14.8,2,22.3,1.1c10.1-1.3,19.2-5.1,27.5-10.9
			c8.2-5.7,15.1-12.6,20-21.3c3.1-5.4,6.1-10.9,8.4-16.7c2-5.1,3-10.6,4-16c0.8-4.6,0.8-9.4,1.3-14.1c0.1-1.1,0.5-2.3,1.2-3
			c0.5-0.5,1.9-0.9,2.5-0.6c0.8,0.4,1.8,1.5,1.8,2.3c-0.2,5.1-0.3,10.2-1,15.2s-1.8,9.9-3.2,14.7c-5.5,18.3-15.6,33.5-31.2,44.8
			c-6.8,4.9-14.3,8.5-22.5,10.7c-8.3,2.2-16.6,2.9-25,1.8c-10.7-1.4-20.6-5.2-29.6-11.3c-9.1-6.2-16.5-14-22.4-23.3
			c-4.2-6.6-7.8-13.5-9.9-21.1c-1.6-5.9-3.2-11.8-4.2-17.8c-0.8-4.3-0.8-8.8-0.9-13.2c-0.1-13.4,0-26.8,0-40.2c0-0.2,0-0.4,0-0.6
			c0.1-2.3,1.3-3.8,3-3.8c1.8,0,2.9,1.3,2.9,3.8C266.9,246.1,266.9,253.7,266.9,261.4L266.9,261.4z"/>
		<path class="st0" d="M279.1,260c0-7.8,0.2-15.7-0.1-23.5c-0.3-6.7-3.5-11.9-9.6-15c-1.3-0.7-2.9-0.8-4.4-1c-2.3-0.3-4-1.8-3.9-3.7
			c0.1-2.1,1.5-3.2,4.1-3c6.8,0.5,11.8,4,15.5,9.6c2.9,4.4,4.2,9.3,4.2,14.6c0.1,14.8-0.1,29.6,0.1,44.4c0.1,9.4,2.5,18.3,6.7,26.8
			c4.2,8.4,10,15.6,17.6,21c6.1,4.4,12.9,7.1,20.5,8.3c5.6,0.9,10.9,0.6,16.3-0.7c9.4-2.2,17.4-7,24.1-14
			c6.9-7.1,11.6-15.4,14.3-24.8c1.5-5.3,2.2-11,2.6-16.5c0.4-5.4,0.7-10.8,3.4-15.6c3.7-6.6,9-10.9,16.8-11.4
			c1.7-0.1,3.3,0.2,3.6,2.3c0.4,2.5-0.2,3.5-2.6,4.1c-1.7,0.5-3.6,0.5-5.2,1.2c-6.2,2.8-9.1,8.1-10,14.5c-0.5,3.9-0.4,7.9-0.8,11.8
			c-0.7,7.2-2.7,14.1-5.7,20.6c-3.5,7.7-8.1,14.5-14.3,20.4c-7,6.6-15,11.3-24.4,13.7c-8.9,2.2-17.8,1.9-26.5-0.7
			c-9.1-2.8-16.9-7.9-23.5-14.8c-8.5-8.9-14.1-19.6-16.8-31.6c-1.3-5.8-1.7-11.9-2-17.8C278.8,272.9,279.1,266.4,279.1,260
			L279.1,260z"/>
		<path class="st0" d="M297.2,259.2c0-6.9,0-13.8,0-20.7c0.1-10.9-3.2-20.7-10.6-28.8c-4.9-5.4-10.9-9-18.3-9.9
			c-1.4-0.2-2.8-0.5-4.2-0.6c-2.1-0.2-2.7-0.8-2.7-3.1c0-2.2,0.9-3.5,2.8-3.3c3.2,0.3,6.6,0.5,9.6,1.5c10.9,3.3,18.5,10.7,23.7,20.6
			c3.1,5.8,5,12.1,5.1,18.7c0.3,15.1,0.4,30.3,0.3,45.4c0,7.5,1.4,14.6,5.1,21.1c4.8,8.5,11.5,14.9,21.3,17.1
			c13.2,3,24.1-2.4,31.7-12.3c3-3.9,5.2-8.2,6.5-12.9c0.8-2.9,1.1-5.9,1.5-8.8c0.8-5.9,0.8-12,2.3-17.8
			c3.3-12.1,10.4-21.5,21.7-27.3c4.5-2.3,9.3-3.5,14.5-3.4c2.4,0,3.3,0.9,3.4,3.2c0,2.4-0.8,3.1-3.2,3.2
			c-9.2,0.6-16.9,4.4-22.9,11.4c-5.6,6.6-8.8,14.1-9.4,22.8c-0.3,4.5-0.4,9.1-1.2,13.5c-2.6,13.7-9.2,24.8-21.8,31.8
			c-7.1,3.9-14.8,5.3-22.8,3.6c-12.6-2.7-21.4-10.5-27.2-21.9c-3.9-7.6-5.5-15.8-5.3-24.3C297.3,271.7,297.2,265.5,297.2,259.2z"/>
		<path class="st0" d="M513.9,438.5c0,3.7,0,7.2,0,10.8c0,5.6-0.1,11.1,0,16.7c0.1,3.3,1,6.3,3.4,8.7c3.9,4,14,3.9,16.7-3.5
			c0.7-1.8,1-3.8,1-5.7c0.1-20.8,0-41.5,0-62.3c0-0.9,0.1-1.8,0.2-2.8c4.5,0.8,10.3,5.6,10.2,11.3c-0.2,19.5,0,39-0.2,58.5
			c-0.1,6-3.7,10.3-8.7,13.4c-4.7,3-9.8,3.9-15.3,3.5c-7.3-0.6-15.3-7.5-17-14.7c-0.5-2-0.7-4.1-0.7-6.1c-0.1-5.6,0-11.3,0-16.9
			C503.4,444.2,509,439.1,513.9,438.5z"/>
		<path class="st0" d="M334,180c-12,0-21.7-3.1-30.7-8.7c-5.8-3.6-11.4-7.6-17.9-9.7c-3.7-1.2-7.6-1.9-11.3-3.1
			c-1.2-0.4-2.8-1.2-3.1-2.2c-0.4-1,0.3-2.6,0.8-3.8c0.3-0.5,1.5-0.8,2.3-0.7c6.9,1.1,13.5,3,19.6,6.3c5.7,3.1,11.1,6.9,16.9,9.8
			c10.4,5.3,21.4,7.2,32.9,4.2c5.3-1.4,9.9-4.2,14.6-7c9-5.4,18.6-9.3,28.9-11.5c3.9-0.9,8-1.2,12-1.8c1.9-0.3,2.6,1,2.9,2.5
			c0.4,1.9-0.7,3.5-2.4,3.8c-3.3,0.6-6.6,0.9-9.8,1.7c-4.6,1.1-9.2,2.4-13.7,4c-7.5,2.6-14.2,6.7-21,10.7
			C348.1,178.2,341,180.2,334,180z"/>
		<path class="st0" d="M683.7,401c5.2,0.6,10.3,6.1,10.4,10.9c0.1,11.3,0.2,22.5-0.1,33.8c-0.1,5-1.2,10-5.1,13.9
			c-3.2,3.2-7.2,4.3-11.4,4.5c-6.5,0.3-13,0.1-19.5,0.1c-0.2,0-0.5-0.1-0.9-0.3c1.9-3.5,4.4-6.2,7.8-8c2.7-1.5,5.6-2,8.7-1.8
			c6.4,0.3,10.2-4.1,10.2-10.2c0-13.6,0-27.2,0-40.8C683.7,402.3,683.7,401.8,683.7,401z"/>
		<path class="st0" d="M333.4,275.6c0.5-9.3,2.1-18.3,5-27.2c3.5-10.5,8.7-20,15.7-28.6c8.1-10,18-17.5,29.9-22.3
			c7.5-3,15.4-4.6,23.5-4.6c2.7,0,4.3,2.1,3.3,4.6c-0.3,0.7-1.3,1.6-2.1,1.7c-3.9,0.6-7.9,0.7-11.7,1.3c-3.2,0.6-6.3,1.5-9.4,2.6
			c-8.2,2.8-15.4,7.5-21.8,13.1c-5.3,4.7-9.9,10.1-13.4,16.3c-2.9,5.1-5.7,10.4-7.8,15.8c-2.6,6.7-4.4,13.8-4.8,21.1
			c-0.2,3.5-0.5,7-0.8,10.6c-0.2,2-1.1,2.9-2.8,2.9c-1.7-0.1-2.6-1.1-2.7-3.1c0-0.7,0-1.5,0-2.2
			C333.4,276.9,333.4,276.2,333.4,275.6z"/>
		<path class="st0" d="M333.1,159.3c-7.5-0.4-14.3-2.2-20.5-5.9c-5.7-3.3-11.4-6.8-17.2-9.9c-3-1.6-6.4-2.5-9.7-3.6
			c-1.4-0.5-2.5-1.2-2.7-2.9c-0.4-2.4,1.2-4.4,3.5-3.6c4.8,1.6,9.6,3.1,14,5.3c5.9,3,11.4,6.8,17.2,9.9c6.9,3.7,14.4,4.9,22,2.9
			c3.2-0.9,6.2-2.9,9.2-4.6c7.8-4.5,15.7-8.6,24.4-11c3.9-1.1,7.8-2.3,11.7-3.3c2.2-0.6,3.6,0.4,3.9,2.5c0.3,2-0.9,3.7-2.9,4.1
			c-7.1,1.4-13.9,3.4-20.4,6.6c-6.1,3-12.1,6.2-18,9.5C342.8,157.9,337.9,158.9,333.1,159.3z"/>
		<path class="st0" d="M471.7,241.4c0-33.4,0-66.7,0-100.1c0-1.2-0.7-3.1,1.4-3.1c2,0,1.7,1.9,1.7,3.3c0,66.2,0,132.4,0,198.6
			c0,1,0.1,2.1-0.3,3c-0.2,0.6-1.1,1.1-1.7,1.2c-0.3,0-0.9-0.9-1.1-1.5c-0.2-0.5,0-1.2,0-1.8C471.7,307.8,471.7,274.6,471.7,241.4z"
			/>
		<path class="st0" d="M491,464.1c-3.2,0-6.2,0-9.2-0.1c-0.4,0-1-0.8-1.1-1.2c-0.1-1.2,0-2.4,0-3.6c0-19,0-38,0-57
			c0-0.3,0-0.6,0-1.7c1.8,0.9,3.4,1.4,4.7,2.3c3.7,2.4,5.7,5.8,5.6,10.4c-0.1,16.1,0,32.1,0,48.2C491,462.2,491,463,491,464.1z"/>
		<path class="st0" d="M554.6,401c4.5,0.6,10.3,5.5,10.2,11.5c-0.2,11.9,0,23.8,0,35.8c0,4.9,0,9.8,0,14.7c0,0.3-0.1,0.6-0.2,1.1
			c-2.9,0-5.8,0-8.6,0c-1.2,0-1.4-0.7-1.4-1.7c0-3.9,0-7.8,0-11.7c0-15.8,0-31.6,0-47.4C554.6,402.6,554.6,401.9,554.6,401z"/>
		<path class="st0" d="M268.4,172.3c7,0.5,13.6,2.5,19.7,5.8c12.2,6.6,20.6,16.8,26.5,29.2c1.3,2.8,2.3,5.8,3.3,8.7
			c0.7,1.9-0.3,4.1-2,4.7c-1.5,0.5-2.9-0.6-3.6-2.9c-4.8-14.7-13.4-26.5-27.2-34.1c-5.5-3-11.6-4.9-18-5.1c-2.4-0.1-3.7-1.3-3.7-3.5
			c0.1-2.2,1.1-3.1,3.7-3C267.6,172.2,268,172.2,268.4,172.3z"/>
		<path class="st0" d="M666.8,414c3.4,0,6.5,0,9.9,0c0,0.7,0.1,1.4,0.1,2.1c0,7.8-0.2,15.7,0.1,23.5c0.2,5.8-4.5,10-9,11.6
			c-1.6,0.6-1.4-0.7-1.4-1.6c0-6.9,0-13.8,0-20.7c0-3.8,0-7.6,0-11.4C666.5,416.5,666.7,415.4,666.8,414z"/>
		<path class="st0" d="M336.1,191.1c-3.4,4.4-6.6,8.5-10.2,13.1c-2.5-5.1-4.8-9.7-7.3-14.7C324.6,190.1,330.1,190.6,336.1,191.1z"/>
		<path class="st0" d="M291.7,420.8c-2.9,0-5-2.1-5-5c0-2.7,2.2-4.9,5-4.9c2.6,0,5.2,2.5,5,5.2C296.5,418.3,294.9,420.9,291.7,420.8
			z"/>
		<path class="st0" d="M310.9,478.3c-2.7,0-4.9-2.3-4.9-5c0-2.5,2.4-4.9,4.8-5c2.6-0.1,5.2,2.4,5.2,5
			C316,476.1,313.8,478.3,310.9,478.3z"/>
		<path class="st0" d="M349,415.9c0,2.9-2,4.9-4.9,4.9s-5-2.2-4.9-5c0.1-3.2,2.2-4.9,4.9-5C346.9,410.8,349,413,349,415.9z"/>
		<path class="st0" d="M321.7,478.3c-2.8-0.1-4.9-2.2-4.8-5c0.1-2.7,2.4-5,5.1-4.9c2.5,0,5.1,2.6,4.9,5.1
			C326.6,476,324.8,478.5,321.7,478.3z"/>
		<path class="st0" d="M285.6,415.9c0,2.9-1.9,4.9-4.8,4.9c-2.8,0-4.9-2-4.9-4.9c0-2.6,2.4-5.2,4.9-5
			C283.1,411.1,285.7,412.5,285.6,415.9z"/>
		<path class="st0" d="M675.3,400.4c0.2,1.7,0.9,3.3-1.5,4.2c-0.7,0.3-1,1.7-1.4,2.5c0.7,0.2,1.4,0.5,2.1,0.6c0.6,0.1,1.3,0,2.2,0
			c0,1.3,0,2.4,0,3.8c-3,0-6.1,0-9.1,0c-0.3,0-0.9-0.6-0.9-0.9c0.1-1,0.4-2,0.7-2.9c0.2-0.6,0.8-1,1-1.6
			C669.2,402.4,671.9,400.1,675.3,400.4z"/>
	</g>
</g>
</svg>
