<?xml version="1.0" encoding="iso-8859-1"?>
<!-- Generator: Adobe Illustrator 23.0.1, SVG Export Plug-In . SVG Version: 6.00 Build 0)  -->
<svg version="1.1" id="Layer_1" xmlns="http://www.w3.org/2000/svg" xmlns:xlink="http://www.w3.org/1999/xlink" x="0px" y="0px"
	 viewBox="0 0 512 512" style="enable-background:new 0 0 512 512;" xml:space="preserve">
<g>
	<g>
		<path style="fill:#E3171A;" d="M253.29,481c-0.799-0.093-1.596-0.255-2.396-0.269c-7.341-0.132-14.654-0.678-21.934-1.597
			c-15.227-1.921-30.093-5.4-44.579-10.49c-58.712-20.631-106.02-65.959-129.125-123.73c-0.19-0.476-0.359-0.961-0.696-1.865
			c0.763,0.443,1.228,0.677,1.656,0.966c12.288,8.328,24.57,16.663,36.857,24.992c2.868,1.944,5.747,3.873,8.628,5.799
			c0.472,0.315,0.979,0.578,1.671,0.982c0.101-0.588,0.224-1.001,0.235-1.416c0.256-9.643,0.489-19.288,0.748-28.931
			c0.303-11.26,0.626-22.519,0.942-33.779c0.006-0.212,0.032-0.423,0.257-0.69c0.212,0.504,0.441,1.002,0.634,1.513
			c16.915,44.871,53.925,81.052,99.172,96.939c11.431,4.014,23.161,6.691,35.224,7.91c29.088,2.939,56.77-2.176,82.883-15.134
			c35.691-17.71,62.018-44.72,78.806-80.918c1.407-3.034,2.566-6.183,3.842-9.278c0.144-0.349,0.302-0.692,0.714-0.98
			c0.573,21.495,1.147,42.989,1.729,64.824c0.8-0.443,1.352-0.697,1.851-1.032c6.23-4.19,12.459-8.382,18.675-12.593
			c8.894-6.025,17.777-12.068,26.666-18.1c0.467-0.317,0.951-0.609,1.689-0.753c-0.214,0.569-0.417,1.144-0.645,1.708
			c-13.142,32.518-32.965,60.283-59.498,83.199c-27.317,23.594-58.643,39.337-93.85,47.315c-9.356,2.12-18.817,3.626-28.389,4.346
			c-4.375,0.329-8.761,0.499-13.142,0.761c-0.914,0.055-1.822,0.196-2.733,0.297C257.219,481,255.254,481,253.29,481z
			 M173.068,446.863c0.513-0.067,0.843-0.106,1.171-0.152c3.141-0.449,6.301-0.797,9.418-1.377c3.486-0.648,5.947-2.694,7.231-6.043
			c1.629-4.25,1-8.289-1.299-12.107c-1.17-1.942-3.047-2.699-5.21-2.299c-3.302,0.61-5.853,2.386-7.333,5.487
			c-0.743,1.557-0.603,2.625,0.726,3.713c1.101,0.901,2.36,1.643,3.632,2.294c1.641,0.84,3.372,1.501,5.048,2.275
			c0.673,0.311,1.372,0.653,1.483,1.77c-4.267,1.289-8.591,2.187-13.12,2.032c0.053-0.596,0.091-1.023,0.141-1.575
			c-0.423,0.138-0.769,0.146-0.941,0.323c-1.484,1.528-3.317,1.391-5.183,1.148c-5.965-0.778-11.853-1.959-17.55-3.891
			c-4.149-1.407-8.201-3.098-12.3-4.651c-0.425-0.161-0.861-0.573-1.545,0.015c0.684,0.404,1.247,0.773,1.841,1.083
			c5.118,2.671,10.221,5.37,15.37,7.979c3.048,1.544,6.254,2.685,9.65,3.226c1.4,0.223,2.795,0.471,4.235,0.714
			c-0.087,0.476-0.128,0.759-0.191,1.038c-0.455,2.006,0.315,3.504,1.952,4.611c0.619,0.419,1.274,0.803,1.954,1.111
			c3.65,1.652,7.5,2.234,11.48,2.043c3.843-0.184,7.522-1.101,11.108-2.466c1.643-0.625,3.175-1.377,4.304-2.785
			c0.116-0.144,0.362-0.184,0.742-0.365c-0.107,1.519-0.207,2.834-0.29,4.15c-0.157,2.478,0.555,4.625,2.71,6.001
			c3.142,2.006,6.429,2.368,9.839,0.561c3.414-1.809,5.221-4.769,6.193-8.37c0.982-3.636,0.711-7.331,0.542-11.023
			c-0.119-2.596-0.235-5.192-0.318-7.789c-0.037-1.169,0.059-2.353,0.93-3.243c0.751-0.767,0.789-1.615,0.56-2.561
			c-0.379-1.57-0.733-3.147-1.136-4.711c-0.117-0.452-0.364-0.871-0.677-1.596c-1.158,1.437-2.248,2.51-2.966,3.791
			c-0.408,0.727-0.206,1.795-0.282,2.71c-0.019,0.23-0.074,0.459-0.074,0.689c-0.009,4.965-0.035,9.929-0.009,14.894
			c0.014,2.712,0.181,5.423,0.156,8.134c-0.011,1.199-0.328,2.395-0.504,3.592c-0.164,1.113-0.8,1.685-1.912,1.922
			c-1.893,0.403-3.692,0.137-5.411-0.631c-2.234-0.998-4.061-2.654-3.825-5.958c0.156-2.187,0.41-4.368,0.562-6.555
			c0.204-2.93,0.736-5.857,0.171-8.802c-0.331-1.725-0.56-3.485-1.683-5.136c-2.11,1.775-3.632,3.396-3.219,6.484
			c0.448,3.347,0.163,6.795,0.149,10.199c-0.004,0.97-0.373,1.758-1.426,2.138c-4.754,1.717-9.548,3.136-14.703,2.583
			c-2.659-0.285-5.255-0.774-7.634-2.061C174.608,448.879,173.627,448.264,173.068,446.863z M346.018,428.052
			c-0.423,0.725-0.708,1.2-0.98,1.683c-0.99,1.761-1.885,3.582-2.979,5.275c-2.964,4.587-7.214,7.393-12.502,8.616
			c-2.762,0.639-5.141-0.176-7.073-2.239c-1.842-1.966-2.908-4.393-4.111-6.77c1.549-1.558,2.015-3.455,2.362-5.441
			c-1.175,0.986-2.35,1.972-3.581,3.005c-1.488-1.599-2.126-3.696-4.027-5.064c-0.994,2.794-1.628,5.345,0.494,7.844
			c-0.619,0.514-1.148,0.943-1.667,1.384c-2.066,1.757-4.158,3.486-6.187,5.286c-2.82,2.501-3.855,5.798-4.024,9.442
			c-0.069,1.499,0.671,2.462,2.158,2.606c0.901,0.088,1.889,0.085,2.734-0.194c3.891-1.284,7.376-3.266,10.199-6.309
			c0.899-0.969,1.46-2.063,1.572-3.384c0.031-0.37,0.091-0.737,0.171-1.369c0.956,1.425,1.679,2.667,2.56,3.785
			c2.117,2.687,4.9,3.857,8.265,3.025c1.831-0.452,3.644-1.123,5.337-1.956c4.404-2.17,7.494-5.694,9.792-9.971
			c0.427-0.795,0.921-1.553,1.446-2.43c1.119,1.229,2.254,2.049,3.796,2.198c4.997,0.483,10.09-3.562,10.724-8.546
			c0.062-0.488,0.185-0.969,0.293-1.523c3.543,1.099,6.226-0.413,8.745-2.381c0.926-0.724,1.615-1.707,1.685-2.926
			c0.135-2.354-0.371-4.613-1.492-6.673c-0.883-1.624-2.687-2.385-4.533-2.008c0.125,1.161,0.24,2.348,0.385,3.531
			c0.11,0.895,0.612,1.458,1.5,1.691c0.461,0.121,0.903,0.313,1.422,0.497c-1.708,1.846-3.583,2.814-5.675,3.01
			c-2.007,0.188-2.204,0.019-2.73-1.938c-0.158-0.587-0.056-1.403-1.12-1.721c-0.046,0.726-0.123,1.337-0.114,1.946
			c0.018,1.212,0.112,2.424,0.115,3.636c0.001,0.627-0.032,1.283-0.211,1.878c-1.095,3.631-6.078,6.583-9.805,5.834
			c-1.143-0.23-2.05-0.742-2.319-2.019C346.568,429.003,346.324,428.677,346.018,428.052z M115.575,390.189
			c-0.789,0.232-1.399,0.316-1.917,0.58c-2.941,1.495-5.081,3.767-6.366,6.813c-0.557,1.32-0.562,2.72-0.281,4.093
			c0.506,2.472,2.45,3.979,4.982,3.899c0.746-0.023,1.486-0.202,2.233-0.259c2.354-0.18,4.71-0.445,7.066-0.455
			c1.24-0.005,2.504,0.375,3.718,0.72c1.228,0.349,1.878,1.291,2.01,2.559c0.054,0.516,0.072,1.038,0.07,1.557
			c-0.007,2.053,0.451,4,1.238,5.89c1.407,3.377,3.606,6.198,6.283,8.612c6.955,6.27,15.117,10.108,24.332,11.698
			c3.077,0.531,5.911,0.095,8.456-1.99c1.914-1.568,3.285-3.355,3.832-5.782c0.775-3.434,1.6-6.857,2.404-10.284
			c0.242-1.03,0.601-1.994,1.492-2.659c0.672-0.502,0.821-1.219,0.833-1.996c0.022-1.502,0.058-3.004,0.063-4.506
			c0.001-0.376-0.095-0.753-0.165-1.263c-1.376,0.245-2.252,1.125-3.243,1.764c-0.709,0.457-1.151,1.115-1.207,1.999
			c-0.022,0.341-0.113,0.681-0.199,1.015c-1.597,6.203-3.196,12.406-4.804,18.607c-0.14,0.539-0.352,1.06-0.561,1.681
			c-1.193-0.08-2.292-0.083-3.369-0.237c-6.333-0.904-12.167-3.207-17.496-6.679c-2.403-1.566-4.692-3.391-6.741-5.397
			c-3.606-3.53-6.078-7.702-5.983-12.997c0.007-0.399-0.112-0.799-0.158-1.201c-0.154-1.335-0.851-2.324-2.117-2.698
			c-1.537-0.454-3.116-0.88-4.704-1.028c-3.006-0.281-5.982,0.07-8.934,0.764c-3.936,0.925-5.8-2.697-5.245-5.315
			c0.461-2.172,1.319-4.031,2.987-5.524C114.606,391.7,115.33,391.344,115.575,390.189z M226.363,449.868
			c-1.197,0.409-1.216,0.395-1.523,0.827c-1.681,2.364-3.109,4.862-3.961,7.654c-0.511,1.674-0.756,3.374-0.407,5.122
			c0.57,2.859,2.307,4.852,4.712,6.334c3.371,2.076,7.097,3.014,11.004,3.283c9.246,0.637,17.874-1.472,25.949-5.948
			c4.254-2.358,4.257-2.368,5.773-7.006c0.387-1.185,0.676-2.402,1.036-3.695c1.22,0,2.376,0.056,3.525-0.01
			c3.763-0.218,7.237-1.334,10.409-3.399c1.168-0.761,1.954-1.75,2.344-3.093c0.556-1.914,0.902-3.865,0.333-5.798
			c-0.384-1.303-0.901-2.644-1.685-3.734c-1.373-1.91-3.491-1.927-4.955-0.065c-0.761,0.967-1.346,2.173-1.665,3.364
			c-0.535,1.998-0.84,4.062-1.147,6.113c-0.124,0.827-0.411,1.287-1.275,1.283c-1.672-0.008-3.362,0.134-5.012-0.058
			c-2.095-0.243-4.036-0.971-5.382-2.785c-0.287-0.386-0.733-0.654-1.134-1.001c-1.162,1.197-1.642,2.579-2.026,3.944
			c-0.156,0.556,0.173,1.339,0.482,1.909c0.292,0.538,0.847,0.933,1.288,1.389c1.266,1.307,2.21,2.805,2.728,4.56
			c0.427,1.448,0.402,1.689-0.873,2.397c-1.965,1.092-3.937,2.191-5.989,3.102c-7.235,3.21-14.779,4.423-22.647,3.202
			c-3.171-0.492-6.174-1.467-8.798-3.392c-2.512-1.843-3.8-4.287-3.574-7.443c0.126-1.76,0.766-3.357,1.578-4.905
			C225.799,451.395,226.017,450.715,226.363,449.868z M374.557,435.272c0.151,0.121,0.302,0.243,0.453,0.364
			c0.495-0.367,1.027-0.695,1.48-1.108c4.18-3.814,8.394-7.593,12.506-11.479c6.821-6.446,9.849-14.817,11.548-23.735
			c0.918-4.82-2.745-9.74-8.004-9.451c-0.172,0.009-0.347-0.029-0.519-0.021c-0.809,0.035-1.433-0.216-1.901-0.942
			c-0.23-0.357-0.672-0.785-1.042-0.808c-1.46-0.093-2.929-0.038-4.538-0.038c0.489,1.783,0.793,3.483,2.382,4.413
			c2.363,1.382,4.855,2.399,7.68,2.365c1.011-0.012,2.024,0.192,3.091,0.303c-0.049,0.484-0.058,0.769-0.109,1.046
			c-1.061,5.729-3.05,11.124-5.932,16.181c-2.812,4.935-6.327,9.379-9.845,13.813c-2.082,2.624-4.25,5.179-6.366,7.776
			C375.109,434.359,374.85,434.83,374.557,435.272z M354.835,390.849c-0.124,0.093-0.249,0.186-0.373,0.279
			c0.134,2.175,0.416,4.195,2.464,5.707c2.222,1.641,4.31,3.486,6.322,5.384c2.854,2.693,5.571,5.532,8.374,8.28
			c1.649,1.616,3.317,3.215,5.037,4.754c1.759,1.573,3.837,2.226,6.093,1.323c3.665-1.468,5.977-4.215,7.022-8.017
			c0.105-0.381,0.167-0.825,0.076-1.198c-0.431-1.785-0.831-3.587-1.421-5.322c-0.427-1.255-1.453-2.175-2.737-2.456
			c-1.445-0.316-2.955-0.367-4.441-0.454c-0.713-0.042-1.05,0.427-0.907,1.138c0.159,0.791,0.348,1.577,0.555,2.357
			c0.493,1.851,0.501,1.842,2.481,1.797c1.31-0.03,2.623-0.051,3.801,0.649c-0.785,2.493-3.433,5.3-5.694,6.031
			c-1.366,0.441-2.76,0.443-4.029-0.282c-0.843-0.482-1.653-1.068-2.36-1.733c-3.365-3.163-6.645-6.417-10.041-9.546
			c-2.884-2.657-5.878-5.195-8.839-7.768C355.803,391.41,355.298,391.153,354.835,390.849z M295.783,462.896
			c0.131,0.046,0.261,0.092,0.392,0.139c0.299-0.469,0.721-0.901,0.875-1.414c0.411-1.368,0.888-2.753,1.015-4.161
			c0.37-4.115-0.657-8.012-2.234-11.773c-1.605-3.826-3.263-7.629-4.9-11.441c-0.604-1.407-0.995-2.831-0.407-4.349
			c0.321-0.831,0.113-1.568-0.365-2.285c-1.088-1.63-2.143-3.283-3.236-4.909c-0.207-0.308-0.529-0.539-0.941-0.947
			c-0.972,2.033-2.026,3.889-1.292,6.035c1.566,4.578,3.176,9.143,4.908,13.659c1.341,3.495,2.958,6.882,4.336,10.363
			c1.325,3.348,2.192,6.803,1.701,10.465C295.609,462.474,295.73,462.69,295.783,462.896z M229.735,462.326
			c0.621-0.309,0.948-0.404,1.19-0.602c1.235-1.013,2.07-2.321,2.644-3.794c1.284-3.295,1.643-6.718,1.24-10.211
			c-0.45-3.896-0.977-7.784-1.479-11.674c-0.183-1.414-0.118-2.732,0.847-3.931c0.319-0.395,0.518-1.134,0.384-1.605
			c-0.625-2.202-1.385-4.366-2.245-7c-1.484,1.765-3.122,2.903-3.06,5.139c0.22,7.853,0.925,15.664,1.971,23.449
			c0.39,2.904,0.093,5.758-0.99,8.508C230.06,461.053,229.963,461.533,229.735,462.326z M325.558,437.507
			c0.499-0.436,0.815-0.677,1.09-0.957c3.716-3.797,7.464-7.563,11.13-11.407c6.272-6.577,11.87-13.695,16.861-21.292
			c0.821-1.25,1.328-2.56,1.226-4.058c-0.023-0.34-0.237-0.666-0.478-1.302c-0.572,0.81-0.981,1.345-1.343,1.911
			c-3.117,4.869-6.529,9.519-10.195,13.99c-5.393,6.578-11.481,12.501-17.456,18.527
			C325.047,434.273,324.877,435.627,325.558,437.507z M136.409,399.4c-0.737-2.192-1.343-4.094-2.043-5.96
			c-0.1-0.266-0.64-0.445-1.005-0.518c-0.96-0.192-1.935-0.314-2.906-0.442c-0.705-0.093-1.13-0.4-1.282-1.159
			c-0.259-1.299-0.593-2.585-0.947-3.862c-0.099-0.357-0.315-0.878-0.587-0.959c-1.626-0.483-3.267-0.979-5.216-0.861
			c0.303,1.896,0.599,3.587,0.834,5.286c0.138,0.995,0.64,1.505,1.633,1.678c1.296,0.226,2.575,0.552,3.846,0.832
			c0.482,1.552,0.896,2.993,1.388,4.406c0.136,0.391,0.451,0.946,0.767,1.009C132.563,399.184,134.253,399.491,136.409,399.4z
			 M311.454,423.261c1.512,0.286,2.92,0.574,4.338,0.805c0.371,0.06,0.964,0.093,1.125-0.116c1.071-1.387,2.153-2.786,2.906-4.677
			c-1.802-0.336-3.382-0.6-4.947-0.935c-0.964-0.206-1.635-0.011-2.167,0.897c-0.574,0.982-1.308,1.87-2.009,2.851
			c-1.489-0.357-2.875-0.739-4.283-1.002c-0.511-0.095-1.309-0.112-1.575,0.189c-1.048,1.187-1.936,2.515-3.079,4.054
			c2.33,0.747,4.327,1.388,6.393,2.05C309.271,425.987,310.309,424.691,311.454,423.261z M344.381,452.264
			c0.042,0.106,0.085,0.212,0.127,0.318c0.161,0.024,0.34,0.105,0.48,0.062c0.439-0.134,0.87-0.297,1.291-0.48
			c3.946-1.706,7.143-4.401,10.018-7.538c1.676-1.828,3.414-3.599,5.111-5.409c1.194-1.274,2.597-2.064,4.387-2.129
			c1.264-0.046,2.144-0.765,2.749-1.835c0.28-0.495,0.518-1.015,0.78-1.533c0.273-0.044,0.497-0.079,0.72-0.116
			c2.318-0.383,3.306-1.762,2.89-4.023c-0.156-0.844-0.552-1.213-1.394-0.814c-0.263,3.126-0.768,2.642-2.806,1.788
			c-0.15,0.626-0.289,1.236-0.443,1.841c-0.393,1.545-1.151,2.278-2.76,2.399c-1.714,0.128-3.115,0.851-4.268,2.041
			c-1.444,1.491-2.825,3.044-4.203,4.596c-3.312,3.728-6.935,7.093-11.175,9.756C345.363,451.516,344.881,451.904,344.381,452.264z
			 M243.486,435.62c1.487-0.08,2.63-0.175,3.774-0.19c0.622-0.008,1.27-0.048,1.375-0.727c0.065-0.423-0.181-0.996-0.473-1.349
			c-0.538-0.651-1.212-1.189-1.902-1.843c0.737-1.628,0.67-3.575,2.108-4.952c0.585,0.435,1.023,0.761,1.455,1.083
			c0.907-1.124,0.913-1.54,0.116-2.217c-0.892-0.758-1.829-0.664-2.468,0.411c-0.628,1.057-1.083,2.218-1.669,3.448
			c-1.228-1.65-2.201-3.402-4.26-3.918c-0.913,1.625-0.765,2.442,0.705,2.886c1.104,0.334,1.498,1.144,2.011,1.976
			c0.608,0.984,0.816,1.902-0.149,2.769c-0.392,0.352,0.359,0.948-0.397,1.294c-1.298,0.594-1.512,1.846-1.369,3.096
			c0.11,0.962,0.428,1.904,0.701,2.842c0.788,2.71,1.677,5.394,2.371,8.127c0.389,1.531,0.47,3.141,0.73,5
			c0.292-0.432,0.537-0.633,0.563-0.86c0.122-1.078,0.317-2.172,0.245-3.244c-0.232-3.428-1.552-6.606-2.429-9.886
			C244.213,438.208,243.884,437.056,243.486,435.62z M135.467,405.242c0.501,0.188,0.901,0.396,1.325,0.487
			c5.969,1.284,11.923,2.648,17.92,3.785c3.447,0.654,6.962,0.957,10.453,1.368c1.141,0.134,2.257,0.013,2.999-1.46
			c-1.252-0.115-2.321-0.191-3.385-0.315c-7.162-0.834-14.245-2.105-21.239-3.866c-1.732-0.436-3.478-0.814-5.218-1.215
			C137.137,403.752,136.192,404.052,135.467,405.242z M242.69,460.412c1.107,0.712,2.04,1.345,3.004,1.928
			c3.63,2.195,2.616,1.978,5.723-0.308c0.706-0.519,1.599-0.9,2-2.003c-1.824-1.255-3.763-2.223-5.653-3.267
			c-0.163-0.09-0.498-0.07-0.645,0.042C245.676,457.897,244.104,458.845,242.69,460.412z M125.956,420.208
			c0.021-0.142,0.042-0.284,0.062-0.427c-0.461-0.201-0.913-0.427-1.385-0.598c-6.733-2.441-13.342-5.176-19.785-8.307
			c-0.414-0.201-0.833-0.417-1.274-0.536c-0.653-0.176-1.224-0.059-1.562,0.749c0.451,0.253,0.829,0.506,1.237,0.687
			c4.009,1.779,8,3.6,12.044,5.297c2.658,1.116,5.394,2.046,8.093,3.064C124.256,420.466,125.114,420.631,125.956,420.208z
			 M372.908,373.583c-0.21,0.472-0.338,0.716-0.429,0.972c-1.753,4.934-3.477,9.878-5.263,14.8
			c-0.608,1.675-1.385,3.289-2.055,4.942c-0.498,1.23-0.41,1.47,0.702,2.26c0.225-0.472,0.47-0.922,0.659-1.395
			c1.305-3.26,2.67-6.497,3.874-9.794c1.085-2.972,1.99-6.009,2.97-9.019C373.658,375.455,373.842,374.567,372.908,373.583z
			 M277.85,462.039c0.739-0.288,1.303-0.536,1.884-0.726c0.654-0.214,1.332-0.357,1.988-0.568c0.743-0.24,1.42-0.616,1.42-1.514
			c0-0.772-0.686-0.991-1.249-1.266c-0.256-0.126-0.53-0.222-0.804-0.304c-1.521-0.453-2.899,0.431-3.141,2.002
			c-0.038,0.245-0.007,0.589-0.155,0.714c-1.497,1.263-1.185,2.751-0.525,4.242c0.905,2.047,1.874,4.067,2.834,6.089
			c0.057,0.12,0.279,0.161,0.414,0.233c0.791-0.477,0.666-1.204,0.494-1.86c-0.188-0.716-0.489-1.409-0.801-2.085
			C279.469,465.391,278.692,463.803,277.85,462.039z M263.96,442.985c1.551-1.928,0.695-4.354,1.963-6.295
			c0.729,0.389,1.4,0.747,2.055,1.097c0.867-1.16,0.846-1.632-0.05-2.324c-1.401-1.081-2.612-0.746-3.213,0.941
			c-0.314,0.884-0.517,1.807-0.813,2.865c-1.708-1.579-3.302-2.961-5.377-3.534c-1.066,1.663-1.042,2.162,0.55,2.67
			c1.855,0.593,2.988,1.847,3.984,3.362C263.277,442.097,263.529,442.405,263.96,442.985z M381.288,387.598
			c-0.293-2.443-2.488-3.617-3.095-5.756c0.841-0.225,1.583-0.425,2.316-0.621c-0.268-1.486-0.809-1.865-2.083-1.558
			c-1.181,0.285-1.732,1.063-1.407,2.142c0.163,0.54,0.504,1.03,0.788,1.529c0.322,0.566,0.67,1.118,1.125,1.874
			c-2.431-0.104-4.543-0.164-6.446,0.929c0.52,1.778,1.015,2.056,2.485,1.532c0.216-0.077,0.43-0.177,0.624-0.299
			c0.838-0.529,1.713-0.568,2.661-0.334C379.188,387.265,380.144,387.39,381.288,387.598z M154.403,398.935
			c-0.426-1.678-0.798-3.234-1.224-4.774c-0.16-0.576-0.467-1.106-1.235-0.801c-0.65,0.258-1.082,0.702-0.907,1.455
			c0.103,0.442,0.221,0.946,0.506,1.267c1.008,1.132,0.842,2.438,0.706,3.759c-0.067,0.656-0.135,1.312-0.219,2.125
			c1.371-0.199,1.954-1.109,2.713-1.764c0.8-0.69,1.371-1.682,2.575-2.051c0.16,0.37,0.307,0.667,0.417,0.977
			c0.129,0.365,0.226,0.742,0.336,1.11c1.196-0.303,1.351-0.412,1.476-0.993c0.15-0.696-0.276-2.048-0.898-2.284
			c-0.464-0.176-1.162-0.176-1.579,0.059C156.136,397.545,155.311,398.266,154.403,398.935z M160.381,415.012
			c-0.744-0.631-1.201-0.318-1.624-0.039c-1.541,1.015-3.156,1.945-4.569,3.118c-0.898,0.746-1.618,1.793-2.181,2.833
			c-0.63,1.162-0.165,2.845,0.712,3.458c0.767,0.535,2.368,0.228,3.325-0.712c0.451-0.443,1.091-0.898,0.631-1.789
			c-0.271,0.093-0.482,0.16-0.69,0.238c-1.203,0.449-1.704,0.13-1.783-1.125c-0.051-0.805,0.22-1.484,0.824-2.002
			c0.525-0.45,1.084-0.861,1.641-1.271C157.865,416.837,159.072,415.966,160.381,415.012z M347.25,401.237
			c-0.595-0.124-0.966-0.222-1.343-0.274c-1.08-0.15-2.16-0.317-3.246-0.406c-0.66-0.054-1.311,0.054-1.305,0.965
			c0.005,0.777,0.427,1.179,1.333,1.251c0.286,0.023,0.602,0.067,0.859-0.026c1.468-0.535,2.691,0.069,3.926,0.747
			c0.507,0.278,0.985,0.823,1.758,0.463c-0.009-2.051-1.641-3.648-1.631-5.744c0.797,0,1.41,0,2.016,0
			c0.202-1.43-0.022-1.784-1.178-1.911c-1.595-0.175-2.253,0.517-1.945,2.141C346.659,399.319,346.955,400.17,347.25,401.237z
			 M205.789,419.1c-0.463,0-0.777-0.032-1.083,0.005c-3.43,0.411-6.856,0.853-10.288,1.244c-2.116,0.241-4.24,0.416-6.361,0.609
			c-0.872,0.079-1.731,0.149-1.956,1.41c0.704,0,1.315,0.032,1.921-0.008c0.861-0.056,1.721-0.146,2.578-0.254
			c4.455-0.558,8.909-1.123,13.363-1.692C204.712,420.318,205.413,420.125,205.789,419.1z M276.272,430.673
			c0.152,0.111,0.303,0.221,0.455,0.332c1.62-1.261,3.266-2.491,4.845-3.802c0.458-0.38,0.756-0.987,0.278-1.77
			c-1.512,1.036-3.056,1.672-4.897,0.885c0.788-0.728,0.788-0.728,2.266-0.726c0.241-0.615,0.942-1.245,0.058-1.916
			c-0.752-0.57-1.438-0.168-1.983,0.417c-0.548,0.588-1.101,1.191-1.529,1.866c-1.001,1.576-0.898,1.843,0.778,2.731
			c0.088,0.047,0.142,0.16,0.202,0.231C276.585,429.508,276.428,430.09,276.272,430.673z M375.151,401.573
			c0.121,0.01,0.242,0.02,0.363,0.03c0.82-1.987,1.688-3.96,2.211-6.06c0.088-0.354-0.21-0.803-0.426-1.536
			c-1.243,1.616-1.73,3.657-3.946,3.754c-0.073-1.258,1.115-1.078,1.701-1.7c-0.203-0.555-0.406-1.107-0.711-1.939
			c-0.709,0.565-1.324,0.849-1.612,1.329c-0.577,0.96-0.671,2.067-0.459,3.183c0.278,1.468,0.351,1.518,1.945,1.329
			c0.095-0.011,0.202,0.076,0.271,0.103C374.715,400.584,374.933,401.078,375.151,401.573z M305.64,433.097
			c0.17-1.356-0.102-1.824-1.063-1.98c-0.874-0.143-1.532,0.303-1.71,1.281c-0.139,0.761-0.145,1.547-0.224,2.486
			c-1.089-0.526-1.979-1.051-2.937-1.383c-0.535-0.186-1.189-0.106-1.771-0.02c-0.119,0.018-0.315,0.79-0.203,0.882
			c0.456,0.373,1.012,0.846,1.543,0.861c1.225,0.033,2.03,0.666,2.829,1.441c0.376,0.365,0.821,0.66,1.234,0.987
			c0.117-0.067,0.234-0.134,0.351-0.2c0-1.513,0-3.026,0-4.673C304.443,432.901,304.985,432.99,305.64,433.097z M216.618,466.901
			c-0.786,0.329-1.373,1.107-2.121,0.28c-0.558-0.616-0.588-1.442-0.014-2.387c0.209-0.344,0.46-0.663,0.706-0.982
			c0.563-0.731,1.15-1.444,1.692-2.189c0.17-0.233,0.229-0.546,0.391-0.954c-2.295,0.878-4.965,4.665-4.935,6.795
			c0.017,1.177,1.082,2.329,2.139,2.314C215.74,469.76,216.714,468.544,216.618,466.901z M296.8,419.668
			c-0.44,0.221-0.592,0.245-0.627,0.322c-1.032,2.264-1.347,4.651-0.921,7.079c0.114,0.648,0.716,1.301,1.257,1.76
			c0.569,0.484,1.376,0.47,1.834-0.214c0.576-0.859,0.939-1.823,0.145-2.961c-0.375,0.469-0.674,0.842-0.957,1.197
			c-1.426-0.587-1.641-1.627-1.426-2.886C296.336,422.617,296.542,421.266,296.8,419.668z M143.25,393.395
			c-0.575-0.051-1.039-0.093-1.48-0.132c-0.361-1.381,0.454-2.072,1.331-2.628c0.868-0.55,1.839-0.935,2.754-1.413
			c0.368-0.192,0.707-0.437,1.095-0.681c-0.209-0.188-0.305-0.333-0.366-0.32c-2.407,0.518-4.544,1.575-6.288,3.327
			c-0.632,0.634-0.894,1.472-0.696,2.385c0.152,0.7,0.6,1.162,1.329,1.09C141.91,394.925,142.811,394.611,143.25,393.395z
			 M327.379,424.037c0.141,0.029,0.282,0.058,0.422,0.086c1.382-2.383,1.849-4.95,1.394-7.699c-0.037-0.221-0.101-0.507-0.257-0.624
			c-0.481-0.363-1.002-0.886-1.526-0.909c-0.398-0.018-0.982,0.557-1.201,1.006c-0.256,0.527-0.226,1.201-0.274,1.816
			c-0.009,0.12,0.19,0.256,0.309,0.405c0.352-0.315,0.68-0.609,0.996-0.892c1.154,0.902,1.27,1.097,1.049,2.324
			C328.021,421.052,327.686,422.542,327.379,424.037z M275.6,433.403c-0.366,0.986-0.87,2.007-1.113,3.086
			c-0.266,1.177,0.289,1.685,1.52,1.671c1.115-0.013,1.985-0.504,2.618-1.397c0.816-1.153,0.521-2.054-0.788-2.528
			C277.169,433.995,276.507,433.742,275.6,433.403z M202.52,423.628c-0.875,0.627-0.607,1.3-0.633,1.885
			c-0.022,0.498-0.101,0.98-0.723,0.942c-0.66-0.04-0.851-0.493-0.728-1.103c0.057-0.28,0.196-0.578,0.144-0.837
			c-0.054-0.27-0.294-0.503-0.452-0.752c-0.127,0.016-0.253,0.032-0.38,0.048c-0.098,0.808-0.24,1.614-0.285,2.425
			c-0.07,1.249,0.463,1.66,1.689,1.35c0.271-0.069,0.522-0.213,0.8-0.329c0.228,0.138,0.432,0.237,0.609,0.372
			c0.488,0.375,1.002,0.608,1.581,0.234c0.579-0.373,0.893-0.923,0.752-1.617c-0.14-0.692-0.366-1.366-0.576-2.127
			c-1.157,0.571-0.421,1.554-1.101,2.216C203.002,425.503,202.788,424.671,202.52,423.628z M186.235,412.223
			c-0.636,0.52-1.334,0.95-1.833,1.546c-0.366,0.437-0.761,1.192-0.613,1.623c0.158,0.458,0.917,0.923,1.458,0.982
			c0.685,0.075,1.485-0.121,2.107-0.446c0.833-0.434,0.896-1.104,0.34-1.891C187.303,413.483,186.845,412.976,186.235,412.223z
			 M120.424,412.752c-0.447-0.432-1.048-0.741-1.138-1.16c-0.159-0.744,0.56-1.038,1.148-1.297c0.579-0.255,1.174-0.477,1.748-0.743
			c0.377-0.175,0.73-0.405,1.093-0.61c-0.051-0.109-0.103-0.218-0.154-0.327c-1.792,0.25-3.53,0.675-4.897,2.025
			c-0.839,0.828-0.933,1.791-0.34,2.478C118.439,413.762,119.395,413.631,120.424,412.752z M176.865,423.323
			c0.044,0.12,0.087,0.241,0.131,0.361c1.513-0.322,2.854-1.008,3.964-2.132c0.761-0.771,0.959-1.788,0.506-2.314
			c-0.415-0.481-1.078-0.371-2.134,0.376c-0.067,0.047-0.057,0.204-0.083,0.31c1.136,0.706,1.215,1.127,0.236,1.809
			C178.649,422.316,177.741,422.797,176.865,423.323z M267.043,430.024c1.308-1.053,2.144-2.399,2.544-3.99
			c0.263-1.045-0.075-1.842-0.762-2.065c-0.667-0.217-1.162,0.303-1.568,1.71c0.392,0,0.759,0,1.167,0
			C268.856,427.494,267.236,428.503,267.043,430.024z M363.432,390.877c0.144,0,0.289,0.001,0.433,0.001
			c0.157-1.539,0.136-3.062-0.553-4.517c-0.332-0.701-0.755-1.459-1.646-1.209c-0.974,0.274-0.721,1.155-0.583,1.89
			c0.016,0.083,0.15,0.145,0.23,0.216c1.121-0.517,1.484-0.364,1.737,0.767c0.075,0.335,0.065,0.688,0.111,1.03
			C363.245,389.663,363.341,390.27,363.432,390.877z M379.355,422.246c-1.633,0.773-1.911,0.631-2.272-1.068
			c-0.123-0.579-0.287-1.149-0.432-1.722c-0.611,1.397-0.344,2.649,0.276,3.831c0.498,0.95,1.376,1.33,2.102,0.918
			C379.915,423.702,379.553,422.966,379.355,422.246z"/>
		<path style="fill:#0A6E41;" d="M291.483,137.229c0.139-1.037,0.258-1.915,0.394-2.93c-0.461-0.058-0.872-0.11-1.406-0.177
			c0.215-0.726,0.424-1.372,0.597-2.028c0.179-0.676,0.321-1.342-0.231-1.958c-0.504-0.563-0.262-1.179-0.031-1.79
			c0.484-1.282,0.943-2.573,1.496-4.088c-0.708,0.068-1.169,0.112-1.788,0.172c0.442-2.101,0.863-4.105,1.349-6.413
			c-0.735,0.345-1.193,0.561-1.837,0.864c0.118-1.479,0.225-2.812,0.331-4.144c-0.1-0.04-0.2-0.08-0.3-0.121
			c-0.342,0.374-0.684,0.747-1.295,1.415c-0.063-2.28-0.117-4.235-0.177-6.393c-1.205,0.476-0.942,1.622-1.649,2.237
			c-0.941-1.23-0.302-2.779-0.838-4.224c-0.486,0.308-0.88,0.558-1.384,0.877c-0.161-1.286-0.3-2.401-0.457-3.654
			c-0.576,0.243-0.972,0.411-1.437,0.607c-0.571-1.9-1.594-3.276-3.862-3.569c0.227,1.932,0.366,3.764,0.667,5.569
			c1.062,6.363,1.255,12.75,0.617,19.161c-0.804,8.083-3.461,15.511-7.977,22.268c-0.732,1.095-1.692,1.963-2.824,3.012
			c0-2.901-0.105-5.481,0.03-8.049c0.128-2.424,0.342-4.82-0.109-7.245c-0.16-0.859,0.027-1.835,0.264-2.701
			c0.374-1.367,0.923-2.687,1.452-4.177c-1.462,0.014-1.604,1.385-2.621,2.031c-0.047-0.64-0.093-1.117-0.116-1.596
			c-0.119-2.418-0.199-4.84-0.371-7.254c-0.038-0.532-0.294-1.122-0.626-1.547c-0.968-1.235-1.393-2.631-1.536-4.158
			c-0.1-1.067-0.256-2.129-0.407-3.359c-1.36,0.638-1.92,1.654-2.224,2.744c-0.852,3.056-1.776,6.132-1.684,9.338
			c0.284,9.813,0.676,19.622,0.99,29.434c0.19,5.946,0.355,11.894,0.454,17.842c0.148,8.837,0.228,17.675,0.335,26.513
			c0.048,3.974,0.75,7.801,2.483,11.411c1.296,2.699,1.394,5.443,0.208,8.213c-1.607,3.755-1.123,7.371,0.927,10.774
			c1.369,2.272,2.971,4.402,4.441,6.614c0.509,0.766,1.023,1.551,1.376,2.394c0.878,2.096,0.186,3.767-2.003,4.3
			c-2.115,0.515-4.314,0.885-6.484,0.933c-6.467,0.143-12.94,0.172-19.408,0.082c-2.113-0.029-4.252-0.417-6.319-0.898
			c-2.694-0.627-3.512-2.329-2.259-4.803c0.958-1.893,2.232-3.635,3.446-5.388c1.492-2.156,2.736-4.415,3.337-6.986
			c0.69-2.95,0.649-5.892-0.674-8.64c-1.056-2.193-0.941-4.096,0.265-6.213c1.75-3.07,2.232-6.541,2.386-10.021
			c0.488-11.021,0.722-22.048,0.88-33.08c0.151-10.507,0.832-21.005,1.095-31.511c0.14-5.594-0.046-11.199-0.218-16.795
			c-0.073-2.364-1.067-4.433-3.003-6.236c-0.186,0.642-0.319,1.099-0.476,1.64c-0.445-0.064-0.878-0.126-1.35-0.194
			c0.061,1.292,0.24,2.548,0.145,3.783c-0.091,1.194-0.463,2.367-0.724,3.606c-0.408,0-0.771,0-1.31,0
			c0.242,0.987,0.483,1.866,0.67,2.757c0.156,0.745,0.247,1.452-0.584,1.986c-0.271,0.174-0.361,0.783-0.359,1.192
			c0.003,0.56,0.172,1.12,0.32,1.965c-1.189-0.892-1.39-2.166-2.335-3.135c-0.075,0.405-0.226,0.709-0.162,0.958
			c0.325,1.283,0.699,2.554,1.068,3.827c0.16,0.554,0.362,1.097,0.518,1.652c0.414,1.476,0.401,1.499-0.869,2.451
			c0.699,4.844,1.585,9.728,1.21,14.881c-1.254-0.212-1.782-1.041-2.357-1.781c-3.56-4.585-5.951-9.726-7.332-15.357
			c-1.952-7.963-2.209-15.976-0.859-24.06c0.351-2.104,0.558-4.235,0.754-6.361c0.093-1.007,0.215-2.056-0.271-3.091
			c-2.113,0.288-1.198,2.26-2.016,3.334c-0.303-0.235-0.602-0.466-0.988-0.765c-0.325,0.244-0.642,0.628-1.03,0.727
			c-0.308,0.078-0.705-0.192-1.286-0.38c0,1.687,0,3.204,0,4.72c-0.13,0.022-0.259,0.045-0.389,0.067
			c-0.236-0.761-0.472-1.522-0.739-2.383c-1.021,0.979-0.642,2.043-0.547,3.033c0.098,1.017,0.3,2.023,0.48,3.186
			c-1.927-0.425-1.084-2.598-2.556-3.287c-0.549,1.807,0.017,3.667-0.424,5.535c-1.235-0.518-0.538-2.177-1.845-2.67
			c-0.968,2.336,0.539,4.413,0.754,6.753c-0.633-0.3-1.123-0.533-1.746-0.829c-0.45,1.158,0.022,2.117,0.264,3.078
			c0.238,0.946,0.525,1.88,0.828,2.952c-0.483,0.08-0.849,0.141-1.256,0.209c-0.42,1,0.082,1.914,0.378,2.814
			c0.498,1.512,0.916,2.95,0.013,4.496c-0.286,0.49-0.143,1.232-0.201,1.922c-0.361,0.122-0.725,0.244-1.189,0.401
			c0.18,1.003,0.356,1.98,0.531,2.958c-0.075,0.029-0.15,0.058-0.225,0.087c-0.139-0.161-0.317-0.301-0.412-0.485
			c-1.966-3.792-4.053-7.528-5.852-11.397c-3.556-7.651-2.918-15.165,1.312-22.369c1.429-2.433,3.153-4.695,4.783-7.006
			c1.141-1.618,1.79-3.352,1.545-5.355c-0.026-0.213-0.107-0.419-0.244-0.933c-0.508,0.73-0.873,1.253-1.312,1.884
			c-0.41-0.224-0.832-0.454-1.499-0.819c-0.247,1.005-0.457,1.86-0.7,2.849c-0.401,0.021-0.89,0.047-1.546,0.082
			c-0.509,1.305-1.042,2.669-1.696,4.345c-0.39-0.899-0.629-1.452-0.946-2.185c-1.192,1.417-1.094,3.222-2.051,4.708
			c-0.335-0.491-0.61-0.893-1.057-1.547c-0.491,1.347-0.895,2.457-1.34,3.676c-0.479-0.107-0.945-0.211-1.554-0.347
			c-0.369,1.808-0.733,3.589-1.164,5.699c-0.461-0.721-0.751-1.172-1.193-1.864c-0.24,0.528-0.473,0.836-0.512,1.166
			c-0.1,0.859-0.096,1.729-0.171,2.591c-0.04,0.455-0.093,0.93-0.258,1.349c-0.411,1.043-0.889,2.059-1.41,3.245
			c-0.102-0.021-0.456-0.092-0.801-0.162c-0.092,0.098-0.232,0.178-0.238,0.266c-0.187,2.752-0.805,5.477-0.406,8.267
			c0.2,1.401-0.031,1.98-0.87,3.085c-0.182-0.317-0.403-0.575-0.49-0.873c-1.691-5.783-3.007-11.621-2.802-17.71
			c0.205-6.085,2.268-11.348,6.539-15.763c5.992-6.194,12.92-10.771,21.364-12.888c1.211-0.304,2.363-0.848,3.616-1.308
			c-0.571-0.999-1.361-0.834-2.079-0.824c-1.14,0.015-2.282,0.03-3.419,0.113c-0.378,0.027-0.788,0.192-1.101,0.412
			c-1.362,0.953-2.693,1.386-3.71,0.164c-1.145,0.165-1.993,0.287-3.116,0.45c-0.311,0.353-0.836,0.949-1.516,1.722
			c-0.158-0.716-0.275-1.241-0.413-1.866c-1.582,0.175-1.835,1.778-2.923,2.623c-0.396-0.15-0.858-0.324-1.421-0.537
			c-0.381,0.434-0.787,0.896-1.238,1.409c-0.357-0.298-0.686-0.573-1.148-0.958c-0.569,1.27-1.079,2.408-1.613,3.601
			c-0.443-0.215-0.831-0.403-1.354-0.656c-0.393,0.558-0.778,1.047-1.095,1.576c-0.235,0.393-0.352,0.856-0.573,1.259
			c-0.821,1.495-2.577,2.151-3.354,3.723c-0.113,0.229-0.831,0.16-1.363,0.244c-0.317,1.406-0.618,2.811-0.955,4.207
			c-0.144,0.597-0.204,1.233-1.018,1.439c-0.705,0.178-0.638,0.875-0.665,1.447c-0.037,0.77-0.099,1.516-1.123,1.786
			c-0.76-0.71-0.718-1.672-0.637-2.544c0.166-1.777,0.33-3.574,0.745-5.303c2.692-11.207,10.009-18.145,20.55-22.064
			c4.483-1.667,9.176-2.234,13.89-2.735c1.603-0.171,3.195-0.487,4.772-0.828c0.927-0.2,1.851-0.526,2.511-1.618
			c-0.626-0.087-1.054-0.16-1.485-0.205c-0.688-0.071-1.405-0.026-2.063-0.203c-2.358-0.635-4.656-0.505-6.991,0.175
			c-0.521,0.152-1.217-0.298-2.159-0.562c-0.522,0.309-1.357,0.804-2.308,1.368c-0.231-0.307-0.457-0.607-0.804-1.068
			c-1.105,0.456-2.241,0.98-3.417,1.389c-0.68,0.237-1.445,0.221-2.133,0.44c-0.786,0.25-1.528,0.635-2.592,1.09
			c-0.691-0.316-1.509-0.049-2.448,0.658c-1.766,1.329-3.72,2.409-5.595,3.592c-0.093-0.081-0.186-0.163-0.28-0.244
			c0.441-0.702,0.83-1.443,1.33-2.101c3.671-4.831,8.021-8.945,13.194-12.128c4.899-3.014,10.299-3.941,15.969-3.463
			c3.276,0.276,6.544,0.644,9.818,0.943c0.537,0.049,1.087-0.039,1.631-0.064c0.046-0.142,0.092-0.284,0.138-0.427
			c-0.374-0.27-0.722-0.595-1.129-0.799c-0.617-0.308-1.343-0.432-1.903-0.811c-1.502-1.017-3.084-1.781-4.881-2.115
			c-0.421-0.078-0.774-0.473-1.189-0.648c-0.782-0.329-1.575-0.806-2.384-0.849c-0.894-0.048-1.541-0.282-2.026-1.077
			c-1.094,0.664-2.179,0.964-3.419,1.092c-1.417,0.146-2.772,0.812-4.267,0.882c-0.697,0.033-1.373,0.535-2.345,0.946
			c0.232-0.562,0.313-0.919,0.506-1.197c0.844-1.217,2.004-2.069,3.327-2.698c7.507-3.57,14.892-3.776,22.109,0.801
			c1.17,0.742,2.349,1.48,3.579,2.112c0.954,0.49,1.995,0.813,3.227,1.3c0.099-1.883,0.137-3.477,0.279-5.061
			c0.143-1.592,0.39-3.175,0.596-4.8c0.736-0.065,1.238-0.11,1.919-0.17c0.266-2.6-0.185-5.344,0.987-8.099
			c0.711,0.957,0.922,1.831,1.001,2.733c0.127,1.437,0.178,2.881,0.319,4.317c0.042,0.422,0.19,1.1,0.448,1.187
			c0.994,0.332,0.873,1.095,0.912,1.824c0.041,0.75,0.029,1.504,0.106,2.25c0.046,0.446,0.082,1.009,0.356,1.295
			c0.986,1.03,1.067,2.249,0.991,3.548c-0.023,0.387,0.044,0.78,0.089,1.45c0.83-0.263,1.561-0.385,2.186-0.712
			c2.046-1.068,4.103-2.13,6.067-3.338c5.353-3.289,10.944-3.73,16.764-1.527c1.506,0.57,2.962,1.297,4.382,2.062
			c1.181,0.636,2.096,1.574,2.482,2.954c-0.708,0.55-1.285,0.178-1.852-0.019c-2.319-0.802-4.692-1.247-7.148-0.971
			c-0.534,0.06-1.141,0.26-1.535,0.601c-0.593,0.514-1.223,0.705-1.912,0.52c-1.646-0.442-3.057,0.057-4.424,0.909
			c-0.57,0.356-1.178,0.652-1.947,1.073c1.544,1.249,3.161,1.275,4.733,1.271c1.614-0.005,3.233-0.144,4.839-0.321
			c6.517-0.72,12.225,1.033,17.071,5.486c2.127,1.954,4.267,3.894,6.371,5.873c1.646,1.547,3.064,3.276,4.138,5.696
			c-0.632-0.334-1.008-0.51-1.363-0.723c-1.834-1.101-3.667-2.171-5.833-2.542c-0.656-0.112-1.236-0.61-1.886-0.824
			c-1.378-0.455-2.591-1.217-3.868-1.871c-0.74-0.379-1.664-0.399-2.557-0.592c-0.337,0.439-0.644,0.84-1.081,1.409
			c-0.829-0.54-1.674-1.09-2.609-1.698c-0.257,0.329-0.49,0.627-0.794,1.016c-0.378-0.167-0.819-0.293-1.18-0.536
			c-0.871-0.587-1.702-0.933-2.648-0.127c-0.186,0.159-0.554,0.176-0.828,0.149c-1.432-0.139-2.817-0.127-4.024,0.838
			c-0.145,0.116-0.459,0.159-0.63,0.085c-1.343-0.577-1.653,0.526-2.35,1.335c0.861,0.561,1.708,0.593,2.551,0.671
			c3.793,0.352,7.601,0.603,11.374,1.104c6.327,0.84,12.303,2.753,17.372,6.788c7.922,6.307,11.657,14.558,11.11,24.703
			c-0.012,0.228-0.062,0.455-0.145,1.042c-0.38-0.65-0.622-1.05-0.851-1.457c-1.694-3.017-3.401-6.026-5.067-9.058
			c-0.499-0.908-1.092-1.592-2.332-1.484c-0.221-2.558-1.831-4.111-3.646-5.521c-0.544-0.422-1.036-0.83-1.848-0.758
			c-0.398,0.035-0.898-0.4-1.252-0.729c-0.414-0.384-0.72-0.885-1.33-1.662c-0.218,0.485-0.377,0.839-0.629,1.402
			c-0.874-1.061-1.556-1.889-2.344-2.845c-0.51,0.781-0.812,1.243-1.17,1.792c-0.643-0.778-1.221-1.479-1.924-2.33
			c-0.742,1.504-2.414-0.001-3.203,1.292c-0.633-0.466-1.177-0.867-1.908-1.405c-0.322,1.251,0.098,2.103,0.807,2.757
			c0.714,0.658,1.56,1.179,2.374,1.722c3.218,2.145,6.5,4.198,9.658,6.427c5.936,4.191,9.36,9.93,10.217,17.17
			c0.647,5.464,0.083,10.836-1.293,16.134c-0.505,1.947-1.144,3.859-1.697,5.705c-1.891-1.334-1.421-2.941-0.72-4.585
			c0.131-0.307,0.178-0.65,0.278-1.028c-0.489-0.304-0.918-0.572-1.416-0.882c0.066-1.352,0.132-2.719,0.202-4.147
			c-0.51,0-0.892,0-1.387,0c0.076-1.236-0.09-2.37-0.661-3.488c-0.308-0.604-0.073-1.474-0.134-2.219
			c-0.088-1.061-0.223-2.119-0.366-3.432c-0.699,0.43-1.109,0.682-1.682,1.034c-0.162-1.617-0.309-3.086-0.463-4.627
			c-0.595,0.042-1.095,0.077-1.799,0.127c-0.346-1.493-0.7-3.021-1.148-4.955c-0.572,0.9-0.918,1.444-1.427,2.244
			c-0.551-1.717-1.042-3.247-1.595-4.972c-0.587,0.622-1.042,1.104-1.707,1.807c-0.604-1.517-1.145-2.876-1.732-4.351
			c-1.8,0.265-2.081-1.313-2.756-2.573c-1.539,0.508-2.526-0.159-3.25-1.467c-0.2-0.361-0.631-0.594-1.025-0.949
			c-0.742,1.033-0.346,1.929-0.006,2.74c0.308,0.733,0.795,1.406,1.278,2.048c1.84,2.447,3.736,4.851,5.563,7.307
			c3.422,4.602,5.196,9.778,4.994,15.522c-0.073,2.058-0.405,4.148-0.931,6.141c-1.295,4.907-3.653,9.333-6.6,13.448
			c-0.402,0.561-0.89,1.061-1.353,1.575C291.977,136.973,291.807,137.032,291.483,137.229z"/>
		<path style="fill:#A67A1A;" d="M254.34,290.783c-0.612,0.571-1.114,1.027-1.602,1.497c-8.594,8.261-16.24,17.385-23.977,26.424
			c-0.555,0.648-1.01,1.412-1.373,2.187c-0.759,1.621-0.585,3.156,0.728,4.454c1.294,1.28,2.845,1.492,4.477,0.834
			c1.011-0.407,1.947-1,2.917-1.508c0.663-0.347,1.303-0.755,1.996-1.026c1.441-0.563,2.375-0.304,3.413,0.835
			c3.14,3.445,2.978,9.187-0.361,12.441c-2.133,2.079-4.732,2.274-7.432,1.649c-3.745-0.867-6.678-3.062-9.12-5.959
			c-0.856-1.016-1.663-2.072-2.504-3.101c-0.396-0.485-0.819-0.947-1.35-1.559c-1.207,0.694-2.392,1.278-3.473,2.015
			c-3.866,2.633-7.68,5.343-11.547,7.976c-3.295,2.244-6.892,3.67-10.906,4.085c-6.756,0.698-11.805-2.487-13.706-9.004
			c-1.583-5.43-0.393-10.287,3.612-14.346c1.359-1.377,2.986-2.37,4.972-2.601c2.866-0.333,5.07,0.905,6.784,3.057
			c1.04,1.305,1.908,2.75,2.829,4.147c0.856,1.299,0.963,1.348,2.341,0.695c0.312-0.148,0.613-0.324,0.904-0.511
			c3.282-2.106,6.17-4.663,8.69-7.635c1.238-1.461,1.728-3.085,1.123-4.988c-0.629-1.979-1.173-3.984-1.776-5.971
			c-0.529-1.744-1.686-2.851-3.461-3.299c-0.168-0.042-0.329-0.109-0.495-0.157c-2.912-0.845-3.839-2.35-3.259-5.293
			c0.663-3.367,3.53-5.689,6.763-5.503c2.175,0.125,3.765,1.118,4.518,3.181c1.109,3.034,2.119,6.104,3.184,9.155
			c0.395,1.131,0.62,2.352,1.742,3.381c0.587-0.507,1.239-0.953,1.745-1.528c3.743-4.246,7.518-8.467,11.161-12.798
			c3.308-3.933,6.492-7.972,9.675-12.008c1.529-1.938,1.496-2.003-0.003-4.026c-0.755-1.018-1.555-2.02-2.449-2.915
			c-7.977-7.977-16.31-15.542-25.702-21.854c-1.388-0.933-2.814-1.825-4.294-2.601c-12.44-6.527-25.193-12.317-38.674-16.399
			c-7.689-2.328-15.467-4.259-23.439-5.296c-5.436-0.707-10.896-1.235-16.342-1.868c-3.668-0.426-7.331-0.893-10.994-1.355
			c-0.327-0.041-0.642-0.175-0.969-0.522c1.271-0.201,2.536-0.518,3.813-0.586c9.513-0.5,18.991-1.658,28.532-1.625
			c14.322,0.05,28.463,1.507,42.243,5.635c9.451,2.831,18.263,7.105,26.948,11.721c10.361,5.506,19.298,12.847,27.709,20.907
			c1.955,1.874,3.858,3.803,5.903,5.823c0.379-0.262,0.825-0.502,1.188-0.832c2.479-2.253,4.971-4.493,7.402-6.797
			c16.61-15.735,36.009-26.465,58.105-32.311c7.717-2.042,15.589-3.201,23.562-3.716c7.218-0.466,14.429-0.407,21.646-0.05
			c5.537,0.274,11.08,0.454,16.61,0.821c3.452,0.229,6.886,0.722,10.326,1.116c0.314,0.036,0.612,0.21,1.286,0.453
			c-0.621,0.163-0.87,0.266-1.126,0.291c-8.501,0.824-17.048,1.324-25.496,2.527c-14.867,2.116-29.607,4.954-43.61,10.656
			c-10.709,4.36-21.161,9.267-30.832,15.664c-6.866,4.541-12.928,10.084-18.869,15.748c-2.382,2.27-4.663,4.649-6.931,7.035
			c-1.732,1.822-1.796,1.977-0.295,3.925c3.488,4.528,6.978,9.063,10.67,13.424c3.43,4.053,7.112,7.893,10.708,11.804
			c0.534,0.581,1.203,1.037,1.992,1.705c0.291-0.638,0.526-1.068,0.689-1.524c1.109-3.097,2.167-6.213,3.323-9.292
			c0.402-1.07,0.939-2.117,1.579-3.064c1.422-2.105,3.347-2.674,5.75-1.845c3.02,1.043,5.128,4.467,4.758,7.66
			c-0.149,1.286-0.791,2.132-1.991,2.573c-0.325,0.119-0.65,0.258-0.987,0.318c-5.972,1.056-8.307,10.452-4.615,14.707
			c2.561,2.951,5.311,5.625,8.7,7.592c1.896,1.101,2.46,0.924,3.542-1.041c0.418-0.758,0.758-1.561,1.212-2.296
			c1.708-2.769,4.181-4.223,7.465-4.224c1.568-0.001,2.922,0.603,4.162,1.502c2.659,1.928,4.142,4.599,4.846,7.75
			c0.792,3.547,0.561,7.006-0.994,10.321c-1.937,4.127-5.173,6.381-9.754,6.658c-4.484,0.271-8.587-0.926-12.33-3.327
			c-4.034-2.588-8.002-5.279-12.004-7.918c-1.109-0.731-2.225-1.452-3.356-2.147c-1.366-0.839-1.384-0.834-2.47,0.269
			c-1.742,1.771-3.462,3.564-5.206,5.332c-0.689,0.698-1.379,1.406-2.138,2.024c-2.816,2.294-5.997,2.805-9.452,1.821
			c-4.804-1.368-7.543-7.841-4.353-12.249c0.473-0.653,0.966-1.304,1.532-1.874c1.082-1.091,2.091-1.221,3.446-0.467
			c1.311,0.73,2.561,1.573,3.891,2.264c1.756,0.912,3.464,0.727,5.015-0.527c1.397-1.13,1.854-2.724,1.027-4.334
			c-0.626-1.219-1.413-2.398-2.327-3.418c-4.393-4.906-8.854-9.75-13.289-14.619c-3.268-3.587-6.526-7.183-9.804-10.761
			C255.566,291.835,254.987,291.377,254.34,290.783z M294.858,319.112c-1.481,1.968-1.56,3.396-0.166,4.913
			c3.664,3.987,7.784,7.37,12.867,9.444c2.981,1.216,6.048,1.916,9.277,1.666c2.751-0.213,5.137-1.178,6.155-3.974
			c1.022-2.807,0.168-5.39-1.667-7.569c-1.465-1.74-3.943-1.532-5.162,0.393c-0.626,0.988-0.926,2.208-1.235,3.361
			c-0.222,0.826-0.201,1.715-0.313,2.572c-0.204,1.566-0.724,1.996-2.269,1.85c-0.455-0.043-0.923-0.13-1.347-0.293
			c-2.973-1.146-5.84-2.462-8.147-4.77c-2.203-2.203-4.464-4.348-6.709-6.508C295.741,319.811,295.291,319.475,294.858,319.112z
			 M214.544,319.358c-1.493,0.67-2.576,1.683-3.682,2.686c-2.778,2.519-5.564,5.03-8.399,7.485c-1.288,1.115-2.844,1.76-4.549,1.964
			c-2.99,0.358-3.558-0.157-3.827-3.134c-0.119-1.313-0.397-2.617-0.676-3.909c-0.195-0.904-0.818-1.521-1.676-1.851
			c-1.987-0.766-4.05,0.055-4.959,1.99c-0.94,2.001-1.137,4.128-0.727,6.265c0.413,2.154,1.716,3.669,3.887,4.205
			c1.049,0.259,2.181,0.381,3.255,0.3c5.129-0.39,9.825-2.018,13.864-5.272c2.337-1.883,4.613-3.844,6.878-5.815
			C215.588,322.832,215.741,321.565,214.544,319.358z M274.933,334.271c1.865-0.133,4.24-0.844,5.53-1.993
			c2.687-2.392,5.131-4.989,6.612-8.353c2.905-6.602,5.853-13.185,8.744-19.793c0.862-1.969,1.913-3.656,4.105-4.405
			c0.598-0.204,1.113-0.813,1.53-1.343c0.589-0.749,0.555-1.588,0.059-2.427c-1.166-1.972-3.141-2.161-4.418-0.234
			c-0.913,1.377-1.599,2.934-2.193,4.485c-2.143,5.602-4.132,11.265-6.322,16.848c-1.547,3.944-3.711,7.556-6.544,10.746
			c-1.439,1.62-3.156,2.027-5.161,1.367c-0.931-0.306-1.829-0.713-2.759-1.021c-0.598-0.198-1.222-0.379-1.845-0.428
			c-0.991-0.077-1.686,0.441-1.991,1.33c-0.558,1.63,0.15,3.555,1.714,4.287C272.917,333.769,273.95,333.967,274.933,334.271z
			 M234.217,334.009c0.489-0.151,1.405-0.327,2.222-0.712c1.115-0.526,1.712-1.521,1.868-2.743c0.291-2.268-0.906-3.254-3.075-2.555
			c-1.259,0.406-2.506,0.859-3.781,1.206c-2.039,0.556-3.801-0.046-5.138-1.622c-0.85-1.002-1.66-2.102-2.202-3.289
			c-2.345-5.137-4.629-10.302-6.846-15.495c-1.311-3.072-2.385-6.246-3.708-9.313c-0.631-1.464-1.503-2.85-2.436-4.149
			c-0.683-0.951-1.742-1.117-2.625-0.705c-0.998,0.466-1.408,1.3-1.428,2.37c-0.027,1.414,0.757,2.255,1.975,2.749
			c2.05,0.831,3.354,2.382,4.272,4.317c0.271,0.572,0.497,1.166,0.74,1.752c2.317,5.589,4.607,11.19,6.959,16.765
			c1.528,3.62,3.779,6.726,6.893,9.167C229.634,333.107,231.591,333.871,234.217,334.009z M285.165,315.149
			c0.35-0.627,0.745-1.249,1.058-1.911c0.638-1.35,0.402-2.575-0.631-3.651c-0.2-0.208-0.388-0.427-0.587-0.636
			c-4.174-4.388-8.341-8.783-12.532-13.156c-0.594-0.62-1.283-1.159-1.978-1.668c-0.203-0.149-0.579-0.061-1.22-0.106
			c0.472,0.788,0.755,1.332,1.103,1.831c2.114,3.025,4.234,6.047,6.369,9.057c2.001,2.822,4.011,5.639,6.046,8.438
			C283.359,314.127,283.936,314.95,285.165,315.149z M238.48,294.085c-1.52,0.381-2.344,1.35-3.195,2.274
			c-2.693,2.921-5.382,5.847-8.07,8.773c-1.402,1.527-2.867,3.002-4.182,4.6c-1.639,1.992-1.082,3.949,1.325,5.099
			C227.063,312.342,237.805,296.672,238.48,294.085z"/>
		<path style="fill:#E3171A;" d="M187.196,433.079c-2.32-0.863-4.867-1.237-6.583-3.371
			C183.33,428.247,186.33,429.738,187.196,433.079z"/>
		<path style="fill:#E3171A;" d="M303.644,447.574c0.34-0.493,0.571-0.958,0.918-1.31c3.201-3.246,6.762-6.069,10.46-8.984
			c0.997,1.036,1.63,2.175,1.971,3.44c0.109,0.406-0.089,1.04-0.374,1.376c-0.59,0.697-1.265,1.369-2.027,1.863
			c-1.883,1.22-3.802,2.394-5.77,3.471c-1.329,0.727-2.787,1.123-4.325,0.618C304.24,447.965,304.016,447.785,303.644,447.574z"/>
		<path style="fill:#E3171A;" d="M284.181,447.634c-1.999,1.557-4.08,2.301-6.519,2.914c-0.052-1.86-0.238-3.555,0.972-4.993
			c1.389-1.649,3.235-1.591,4.516,0.139C283.549,446.232,283.791,446.887,284.181,447.634z"/>
		<path style="fill:#E3171A;" d="M275.344,435.541c0.951,0.119,1.576,0.198,2.436,0.305
			C276.377,436.913,276.172,436.897,275.344,435.541z"/>
		<path style="fill:#E3171A;" d="M186.517,415.268c-0.931,0.173-1.37-0.193-1.609-1.1
			C185.947,414.327,185.947,414.327,186.517,415.268z"/>
	</g>
</g>
</svg>
